Regular.ufo
<glyph name="exclam" format="1">
  <advance width="212"/>
  <unicode hex="0021"/>
  <outline>
    <contour>
      <point x="55" y="491" type="line"/>
      <point x="65" y="185" type="line"/>
      <point x="147" y="185" type="line"/>
      <point x="157" y="491" type="line"/>
      <point x="157" y="685" type="line"/>
      <point x="55" y="685" type="line"/>
    </contour>
    <contour>
      <point x="55" y="115" type="line"/>
      <point x="55" y="0" type="line"/>
      <point x="157" y="0" type="line"/>
      <point x="157" y="115" type="line"/>
    </contour>
  </outline>
</glyph>
<glyph name="parenright" format="1">
  <advance width="345"/>
  <unicode hex="0029"/>
  <outline>
    <contour>
      <point x="190" y="307" type="curve"/>
      <point x="190" y="161"/>
      <point x="140" y="9"/>
      <point x="35" y="-31" type="curve"/>
      <point x="35" y="-111" type="line"/>
      <point x="223" y="-81"/>
      <point x="280" y="126"/>
      <point x="280" y="307" type="curve"/>
      <point x="280" y="488"/>
      <point x="223" y="695"/>
      <point x="35" y="725" type="curve"/>
      <point x="35" y="645" type="line"/>
      <point x="140" y="605"/>
      <point x="190" y="453"/>
    </contour>
  </outline>
</glyph>
<glyph name="hyphen" format="1">
  <advance width="334"/>
  <unicode hex="002D"/>
  <outline>
    <contour>
      <point x="30" y="299" type="line"/>
      <point x="304" y="299" type="line"/>
      <point x="304" y="229" type="line"/>
      <point x="30" y="229" type="line"/>
    </contour>
  </outline>
</glyph>
<glyph name="slash" format="1">
  <advance width="533"/>
  <unicode hex="002F"/>
  <outline>
    <contour>
      <point x="40" y="-105" type="curve"/>
      <point x="413" y="766" type="line"/>
      <point x="413" y="766"/>
      <point x="493" y="738"/>
      <point x="493" y="738" type="curve"/>
      <point x="120" y="-133" type="line"/>
      <point x="120" y="-133"/>
      <point x="40" y="-105"/>
    </contour>
  </outline>
</glyph>
<glyph name="zero" format="1">
  <advance width="638"/>
  <unicode hex="0030"/>
  <outline>
    <contour>
      <point x="319" y="73" type="curve"/>
      <point x="447" y="73"/>
      <point x="514" y="199"/>
      <point x="514" y="337" type="curve"/>
      <point x="514" y="480"/>
      <point x="447" y="610"/>
      <point x="319" y="610" type="curve"/>
      <point x="191" y="610"/>
      <point x="124" y="480"/>
      <point x="124" y="337" type="curve"/>
      <point x="124" y="199"/>
      <point x="191" y="73"/>
    </contour>
    <contour>
      <point x="319" y="-12" type="curve"/>
      <point x="105" y="-12"/>
      <point x="34" y="161"/>
      <point x="34" y="337" type="curve"/>
      <point x="34" y="518"/>
      <point x="105" y="695"/>
      <point x="319" y="695" type="curve"/>
      <point x="533" y="695"/>
      <point x="604" y="518"/>
      <point x="604" y="337" type="curve"/>
      <point x="604" y="161"/>
      <point x="533" y="-12"/>
    </contour>
  </outline>
</glyph>
<glyph name="two" format="1">
  <advance width="554"/>
  <unicode hex="0032"/>
  <outline>
    <contour>
      <point x="514" y="0" type="line"/>
      <point x="73" y="0" type="line"/>
      <point x="73" y="30" type="line" smooth="yes"/>
      <point x="73" y="345"/>
      <point x="422" y="304"/>
      <point x="422" y="487" type="curve" smooth="yes"/>
      <point x="422.0" y="550.0"/>
      <point x="368.481751825" y="609.0"/>
      <point x="281" y="609" type="curve" smooth="yes"/>
      <point x="201.062893082" y="609.0"/>
      <point x="140.991295205" y="556.94370899"/>
      <point x="126" y="460" type="curve"/>
      <point x="41" y="480" type="line"/>
      <point x="63.9886469136" y="609.935830381"/>
      <point x="149.196721311" y="695.0"/>
      <point x="281" y="695" type="curve" smooth="yes"/>
      <point x="424.484581498" y="695.0"/>
      <point x="512.0" y="595.0"/>
      <point x="512" y="487" type="curve" smooth="yes"/>
      <point x="512" y="219"/>
      <point x="173" y="302"/>
      <point x="173" y="29" type="curve"/>
      <point x="173" y="29"/>
      <point x="109" y="84"/>
      <point x="109" y="84" type="curve"/>
      <point x="514" y="84" type="line"/>
    </contour>
  </outline>
</glyph>
<glyph name="three" format="1">
  <advance width="615"/>
  <unicode hex="0033"/>
  <outline>
    <contour>
      <point x="286" y="321" type="line"/>
      <point x="286" y="406" type="line"/>
      <point x="332" y="406" type="line" smooth="yes"/>
      <point x="480.0" y="406"/>
      <point x="570.0" y="320.581280788"/>
      <point x="570" y="202" type="curve"/>
      <point x="570" y="63"/>
      <point x="474" y="-12"/>
      <point x="332" y="-12" type="curve" smooth="yes"/>
      <point x="191" y="-12"/>
      <point x="117" y="51"/>
      <point x="87" y="154" type="curve"/>
      <point x="174" y="189" type="line"/>
      <point x="201" y="117"/>
      <point x="244" y="73"/>
      <point x="332" y="73" type="curve" smooth="yes"/>
      <point x="423.862068966" y="73.0"/>
      <point x="480.0" y="140.0"/>
      <point x="480" y="204" type="curve"/>
      <point x="480.0" y="275.389830508"/>
      <point x="421.0" y="321"/>
      <point x="332" y="321" type="curve" smooth="yes"/>
    </contour>
    <contour>
      <point x="286" y="406" type="line"/>
      <point x="332" y="406" type="line" smooth="yes"/>
      <point x="403" y="406"/>
      <point x="446" y="444"/>
      <point x="446" y="503" type="curve"/>
      <point x="446" y="558"/>
      <point x="399" y="610"/>
      <point x="329" y="610" type="curve" smooth="yes"/>
      <point x="243" y="610"/>
      <point x="211" y="546"/>
      <point x="192" y="488" type="curve"/>
      <point x="105" y="521" type="line"/>
      <point x="138" y="627"/>
      <point x="210" y="695"/>
      <point x="329" y="695" type="curve" smooth="yes"/>
      <point x="452" y="695"/>
      <point x="536" y="620"/>
      <point x="536" y="503" type="curve"/>
      <point x="536" y="398"/>
      <point x="460" y="321"/>
      <point x="332" y="321" type="curve" smooth="yes"/>
      <point x="286" y="321" type="line"/>
    </contour>
  </outline>
</glyph>
<glyph name="four" format="1">
  <advance width="608"/>
  <unicode hex="0034"/>
  <outline>
    <contour>
      <point x="33" y="233" type="line"/>
      <point x="33.0" y="233.0"/>
      <point x="354" y="678"/>
      <point x="354" y="678" type="curve"/>
      <point x="415" y="630" type="line"/>
      <point x="98" y="186" type="line"/>
    </contour>
    <contour>
      <point x="544" y="148" type="line"/>
      <point x="544" y="148"/>
      <point x="33" y="148"/>
      <point x="33" y="148" type="curve"/>
      <point x="33" y="233" type="line"/>
      <point x="544" y="233" type="line"/>
    </contour>
    <contour>
      <point x="354" y="0" type="line"/>
      <point x="354.0" y="0.0"/>
      <point x="354.0" y="678.0"/>
      <point x="354" y="678" type="curve"/>
      <point x="444" y="678" type="line"/>
      <point x="444" y="0" type="line"/>
    </contour>
  </outline>
</glyph>
<glyph name="five" format="1">
  <advance width="568"/>
  <unicode hex="0035"/>
  <outline>
    <contour>
      <point x="83" y="308" type="line" smooth="yes"/>
      <point x="83.0" y="308.0"/>
      <point x="134.0" y="685.0"/>
      <point x="134" y="685" type="curve"/>
      <point x="466" y="685" type="line"/>
      <point x="466" y="600" type="line"/>
      <point x="170" y="600" type="line"/>
      <point x="170.0" y="600.0"/>
      <point x="219.0" y="658.0"/>
      <point x="219" y="658" type="curve"/>
      <point x="164" y="283" type="line"/>
    </contour>
    <contour>
      <point x="164" y="283" type="curve"/>
      <point x="110" y="304" type="line"/>
      <point x="130" y="401"/>
      <point x="212" y="447"/>
      <point x="289" y="447" type="curve" smooth="yes"/>
      <point x="423" y="447"/>
      <point x="508" y="355"/>
      <point x="508" y="225" type="curve" smooth="yes"/>
      <point x="508" y="92"/>
      <point x="420" y="-12"/>
      <point x="276" y="-12" type="curve" smooth="yes"/>
      <point x="192" y="-12"/>
      <point x="92" y="31"/>
      <point x="60" y="137" type="curve"/>
      <point x="138" y="183" type="line"/>
      <point x="161" y="114"/>
      <point x="218.0" y="74.0"/>
      <point x="276" y="74" type="curve" smooth="yes"/>
      <point x="371.0" y="74.0"/>
      <point x="416" y="139"/>
      <point x="418" y="225" type="curve" smooth="yes"/>
      <point x="420" y="301"/>
      <point x="371" y="362"/>
      <point x="292" y="362" type="curve" smooth="yes"/>
      <point x="238" y="362"/>
      <point x="186" y="336"/>
    </contour>
  </outline>
</glyph>
<glyph name="six" format="1">
  <advance width="638"/>
  <unicode hex="0036"/>
  <outline>
    <contour>
      <point x="131" y="243" type="line"/>
      <point x="154" y="390"/>
      <point x="250" y="458"/>
      <point x="333" y="458" type="curve"/>
      <point x="460" y="458"/>
      <point x="561" y="370"/>
      <point x="561" y="217" type="curve" smooth="yes"/>
      <point x="561" y="90"/>
      <point x="457" y="-12"/>
      <point x="330" y="-12" type="curve"/>
      <point x="145" y="-12"/>
      <point x="77" y="161"/>
      <point x="77" y="306" type="curve" smooth="yes"/>
      <point x="77" y="522"/>
      <point x="179" y="695"/>
      <point x="355" y="695" type="curve"/>
      <point x="435" y="695"/>
      <point x="524" y="652"/>
      <point x="560" y="566" type="curve"/>
      <point x="491" y="521" type="line"/>
      <point x="460" y="580"/>
      <point x="409" y="610"/>
      <point x="358" y="610" type="curve"/>
      <point x="226" y="610"/>
      <point x="172" y="442"/>
      <point x="172" y="307" type="curve" smooth="yes"/>
      <point x="172" y="208"/>
      <point x="191" y="73"/>
      <point x="330" y="73" type="curve"/>
      <point x="408" y="73"/>
      <point x="469" y="138"/>
      <point x="471" y="217" type="curve" smooth="yes"/>
      <point x="473" y="301"/>
      <point x="414" y="374"/>
      <point x="333" y="374" type="curve"/>
      <point x="253" y="374"/>
      <point x="181" y="311"/>
      <point x="182" y="206" type="curve"/>
    </contour>
  </outline>
</glyph>
<glyph name="seven" format="1">
  <advance width="480"/>
  <unicode hex="0037"/>
  <outline>
    <contour>
      <point x="455" y="600" type="line"/>
      <point x="315" y="433"/>
      <point x="243" y="236"/>
      <point x="243" y="0" type="curve"/>
      <point x="153" y="0" type="line"/>
      <point x="153" y="253"/>
      <point x="237" y="463"/>
      <point x="390" y="642" type="curve"/>
    </contour>
    <contour>
      <point x="40" y="685" type="line"/>
      <point x="40" y="685"/>
      <point x="455" y="685"/>
      <point x="455" y="685" type="curve"/>
      <point x="455" y="600" type="line"/>
      <point x="40" y="600" type="line"/>
    </contour>
  </outline>
</glyph>
<glyph name="eight" format="1">
  <advance width="508"/>
  <unicode hex="0038"/>
  <outline>
    <contour>
      <point x="254" y="334" type="curve"/>
      <point x="151" y="334"/>
      <point x="70.0" y="405.396648045"/>
      <point x="70" y="514" type="curve" smooth="yes"/>
      <point x="70" y="626"/>
      <point x="154" y="695"/>
      <point x="254" y="695" type="curve" smooth="yes"/>
      <point x="354" y="695"/>
      <point x="438" y="626"/>
      <point x="438" y="514" type="curve" smooth="yes"/>
      <point x="438.0" y="405.396648045"/>
      <point x="356" y="334"/>
    </contour>
    <contour>
      <point x="254" y="422" type="curve" smooth="yes"/>
      <point x="309" y="422"/>
      <point x="348.0" y="462.559139785"/>
      <point x="348" y="514" type="curve" smooth="yes"/>
      <point x="348.0" y="568.742574257"/>
      <point x="309.0" y="611.0"/>
      <point x="254" y="611" type="curve" smooth="yes"/>
      <point x="199.0" y="611.0"/>
      <point x="160.0" y="568.742574257"/>
      <point x="160" y="514" type="curve" smooth="yes"/>
      <point x="160.0" y="462.559139785"/>
      <point x="199" y="422"/>
    </contour>
    <contour>
      <point x="254" y="70" type="curve" smooth="yes"/>
      <point x="336" y="70"/>
      <point x="388" y="133"/>
      <point x="388" y="204" type="curve" smooth="yes"/>
      <point x="388.0" y="279.419847328"/>
      <point x="332" y="334"/>
      <point x="254" y="334" type="curve"/>
      <point x="176" y="334"/>
      <point x="120.0" y="279.419847328"/>
      <point x="120" y="204" type="curve" smooth="yes"/>
      <point x="120" y="133"/>
      <point x="172" y="70"/>
    </contour>
    <contour>
      <point x="254" y="-12" type="curve" smooth="yes"/>
      <point x="117" y="-12"/>
      <point x="30" y="74"/>
      <point x="30" y="204" type="curve" smooth="yes"/>
      <point x="30.0" y="341.631336406"/>
      <point x="132" y="422"/>
      <point x="254" y="422" type="curve" smooth="yes"/>
      <point x="376" y="422"/>
      <point x="478.0" y="341.631336406"/>
      <point x="478" y="204" type="curve" smooth="yes"/>
      <point x="478" y="74"/>
      <point x="391" y="-12"/>
    </contour>
  </outline>
</glyph>
<glyph name="less" format="1">
  <advance width="573"/>
  <unicode hex="003C"/>
  <outline>
    <contour>
      <point x="442" y="-83" type="line"/>
      <point x="510" y="-22" type="line"/>
      <point x="178" y="304" type="line"/>
      <point x="179" y="246" type="line"/>
      <point x="510" y="586" type="line"/>
      <point x="442" y="644" type="line"/>
      <point x="82" y="275" type="line"/>
    </contour>
  </outline>
</glyph>
<glyph name="equal" format="1">
  <advance width="454"/>
  <unicode hex="003D"/>
  <outline>
    <contour>
      <point x="414" y="243" type="line"/>
      <point x="414" y="163" type="line"/>
      <point x="40" y="163" type="line"/>
      <point x="40" y="243" type="line"/>
    </contour>
    <contour>
      <point x="40" y="409" type="line"/>
      <point x="414" y="409" type="line"/>
      <point x="414" y="329" type="line"/>
      <point x="40" y="329" type="line"/>
    </contour>
  </outline>
</glyph>
<glyph name="question" format="1">
  <advance width="449"/>
  <unicode hex="003F"/>
  <outline>
    <contour>
      <point x="178" y="162" type="line"/>
      <point x="178" y="250" type="line" smooth="yes"/>
      <point x="178" y="389.583333333"/>
      <point x="340.0" y="407.692307692"/>
      <point x="340" y="500" type="curve"/>
      <point x="340.0" y="584.333333333"/>
      <point x="282.0" y="615.0"/>
      <point x="230" y="615" type="curve" smooth="yes"/>
      <point x="147" y="615"/>
      <point x="115" y="559"/>
      <point x="102" y="495" type="curve"/>
      <point x="20" y="524" type="line"/>
      <point x="44" y="622"/>
      <point x="96" y="695"/>
      <point x="230" y="695" type="curve" smooth="yes"/>
      <point x="330.0" y="695.0"/>
      <point x="429.0" y="639.135135135"/>
      <point x="429" y="500" type="curve"/>
      <point x="429.0" y="357.401459854"/>
      <point x="268" y="347.212598425"/>
      <point x="268" y="236" type="curve" smooth="yes"/>
      <point x="268" y="162" type="line"/>
    </contour>
    <component base="dotaccent" xOffset="128" yOffset="-595"/>
  </outline>
</glyph>
<glyph name="A" format="1">
  <advance width="570"/>
  <unicode hex="0041"/>
  <outline>
    <contour>
      <point x="455" y="183" type="line"/>
      <point x="131" y="183" type="line"/>
      <point x="131" y="268" type="line"/>
      <point x="455" y="268" type="line"/>
    </contour>
    <component base="V" xScale="-1" yScale="-1" xOffset="573" yOffset="685"/>
    <contour>
      <point x="291" y="685" type="move" name="top"/>
    </contour>
    <contour>
      <point x="570" y="0" type="move" name="ogonek"/>
    </contour>
  </outline>
</glyph>
<glyph name="B" format="1">
  <advance width="541"/>
  <unicode hex="0042"/>
  <outline>
    <contour>
      <point x="337" y="405"/>
      <point x="377" y="453"/>
      <point x="377" y="505" type="curve" smooth="yes"/>
      <point x="377" y="555"/>
      <point x="339" y="600"/>
      <point x="276" y="600" type="curve" smooth="yes"/>
      <point x="75" y="600" type="line"/>
      <point x="75" y="685" type="line"/>
      <point x="286" y="685" type="line" smooth="yes"/>
      <point x="391" y="685"/>
      <point x="467" y="611"/>
      <point x="467" y="510" type="curve" smooth="yes"/>
      <point x="467" y="411"/>
      <point x="405" y="317"/>
      <point x="275" y="317" type="curve" smooth="yes"/>
      <point x="105" y="317" type="line"/>
      <point x="105" y="405" type="line"/>
      <point x="288" y="405" type="line" smooth="yes"/>
    </contour>
    <contour>
      <point x="372" y="85"/>
      <point x="421" y="132"/>
      <point x="421" y="206" type="curve" smooth="yes"/>
      <point x="421" y="282"/>
      <point x="367" y="317"/>
      <point x="285" y="317" type="curve" smooth="yes"/>
      <point x="55" y="317" type="line"/>
      <point x="55" y="405" type="line"/>
      <point x="268" y="405" type="line" smooth="yes"/>
      <point x="405" y="405"/>
      <point x="511" y="345"/>
      <point x="511" y="206" type="curve" smooth="yes"/>
      <point x="511" y="70"/>
      <point x="440" y="0"/>
      <point x="281" y="0" type="curve" smooth="yes"/>
      <point x="55" y="0" type="line"/>
      <point x="55" y="85" type="line"/>
      <point x="289" y="85" type="line" smooth="yes"/>
    </contour>
    <component base="I"/>
  </outline>
</glyph>
<glyph name="C" format="1">
  <advance width="676"/>
  <unicode hex="0043"/>
  <outline>
    <contour>
      <point x="556" y="459" type="line"/>
      <point x="524" y="546"/>
      <point x="456" y="605"/>
      <point x="368" y="605" type="curve"/>
      <point x="237" y="605"/>
      <point x="140" y="482"/>
      <point x="140" y="341" type="curve" smooth="yes"/>
      <point x="140" y="174"/>
      <point x="225" y="80"/>
      <point x="369" y="80" type="curve"/>
      <point x="459" y="80"/>
      <point x="520" y="122"/>
      <point x="556" y="208" type="curve"/>
      <point x="643" y="169" type="line"/>
      <point x="603" y="70"/>
      <point x="513" y="-12"/>
      <point x="371" y="-12" type="curve"/>
      <point x="161" y="-12"/>
      <point x="50" y="126"/>
      <point x="50" y="337" type="curve" smooth="yes"/>
      <point x="50" y="543"/>
      <point x="180" y="695"/>
      <point x="372" y="695" type="curve"/>
      <point x="503" y="695"/>
      <point x="596" y="627"/>
      <point x="640" y="492" type="curve"/>
    </contour>
    <contour>
      <point x="366.0" y="0.0" type="move" name="bottom"/>
    </contour>
    <contour>
      <point x="363.0" y="685.0" type="move" name="top"/>
    </contour>
  </outline>
</glyph>
<glyph name="D" format="1">
  <advance width="605"/>
  <unicode hex="0044"/>
  <outline>
    <contour>
      <point x="401" y="90"/>
      <point x="485" y="173"/>
      <point x="485" y="343" type="curve" smooth="yes"/>
      <point x="485" y="497"/>
      <point x="390" y="595"/>
      <point x="205" y="595" type="curve" smooth="yes"/>
      <point x="55" y="595" type="line"/>
      <point x="55" y="685" type="line"/>
      <point x="237" y="685" type="line" smooth="yes"/>
      <point x="450" y="685"/>
      <point x="575" y="539"/>
      <point x="575" y="343" type="curve" smooth="yes"/>
      <point x="575" y="128"/>
      <point x="449" y="0"/>
      <point x="253" y="0" type="curve" smooth="yes"/>
      <point x="55" y="0" type="line"/>
      <point x="55" y="90" type="line"/>
      <point x="215" y="90" type="line" smooth="yes"/>
    </contour>
    <component base="I"/>
    <contour>
      <point x="238" y="685" type="move" name="top"/>
    </contour>
  </outline>
</glyph>
<glyph name="E" format="1">
  <advance width="537"/>
  <unicode hex="0045"/>
  <outline>
    <contour>
      <point x="443" y="324" type="line"/>
      <point x="55" y="324" type="line"/>
      <point x="55" y="409" type="line"/>
      <point x="443" y="409" type="line"/>
    </contour>
    <contour>
      <point x="55" y="0" type="line"/>
      <point x="55" y="85" type="line"/>
      <point x="503" y="85" type="line"/>
      <point x="503" y="0" type="line"/>
    </contour>
    <contour>
      <point x="493" y="600" type="line"/>
      <point x="55" y="600" type="line"/>
      <point x="55" y="685" type="line"/>
      <point x="493" y="685" type="line"/>
    </contour>
    <component base="I"/>
    <contour>
      <point x="316.0" y="0.0" type="move" name="bottom"/>
    </contour>
    <contour>
      <point x="316.0" y="685.0" type="move" name="top"/>
    </contour>
    <contour>
      <point x="465" y="0" type="move" name="ogonek"/>
    </contour>
  </outline>
</glyph>
<glyph name="G" format="1">
  <advance width="698"/>
  <unicode hex="0047"/>
  <outline>
    <contour>
      <point x="653" y="246" type="line"/>
      <point x="362" y="246" type="line"/>
      <point x="362" y="331" type="line"/>
      <point x="653" y="331" type="line"/>
    </contour>
    <contour>
      <point x="583" y="0" type="line"/>
      <point x="551" y="331" type="line"/>
      <point x="653" y="331" type="line"/>
      <point x="653" y="0" type="line"/>
    </contour>
    <contour>
      <point x="559" y="452" type="line"/>
      <point x="525" y="546"/>
      <point x="460" y="610"/>
      <point x="359" y="610" type="curve"/>
      <point x="214" y="610"/>
      <point x="130" y="487"/>
      <point x="130" y="341" type="curve" smooth="yes"/>
      <point x="130" y="194"/>
      <point x="192" y="76"/>
      <point x="364" y="76" type="curve"/>
      <point x="467" y="76"/>
      <point x="530" y="133"/>
      <point x="556" y="250" type="curve"/>
      <point x="606" y="214" type="line"/>
      <point x="575" y="71"/>
      <point x="512" y="-12"/>
      <point x="356" y="-12" type="curve"/>
      <point x="129" y="-12"/>
      <point x="40" y="139"/>
      <point x="40" y="337" type="curve" smooth="yes"/>
      <point x="40" y="550"/>
      <point x="161" y="695"/>
      <point x="363" y="695" type="curve"/>
      <point x="499" y="695"/>
      <point x="598" y="623"/>
      <point x="643" y="485" type="curve"/>
    </contour>
    <contour>
      <point x="363.0" y="685.0" type="move" name="top"/>
    </contour>
    <contour>
      <point x="365.0" y="0.0" type="move" name="bottom"/>
    </contour>
  </outline>
</glyph>
<glyph name="M" format="1">
  <advance width="775"/>
  <unicode hex="004D"/>
  <outline>
    <contour>
      <point x="436" y="0" type="line"/>
      <point x="349" y="0" type="line"/>
      <point x="564" y="685" type="line"/>
      <point x="661" y="685" type="line"/>
    </contour>
    <contour>
      <point x="337" y="0" type="line"/>
      <point x="113" y="685" type="line"/>
      <point x="210" y="685" type="line"/>
      <point x="424" y="0" type="line"/>
    </contour>
    <component base="I" xOffset="575"/>
    <component base="I"/>
  </outline>
</glyph>
<glyph name="N" format="1">
  <advance width="664"/>
  <unicode hex="004E"/>
  <outline>
    <contour>
      <point x="497" y="0" type="line"/>
      <point x="63" y="685" type="line"/>
      <point x="171" y="685" type="line"/>
      <point x="598" y="0" type="line"/>
    </contour>
    <component base="I" xOffset="464"/>
    <component base="I"/>
    <contour>
      <point x="332" y="685" type="move" name="top"/>
    </contour>
    <contour>
      <point x="332" y="0" type="move" name="bottom"/>
    </contour>
  </outline>
</glyph>
<glyph name="O" format="1">
  <advance width="748"/>
  <unicode hex="004F"/>
  <outline>
    <contour>
      <point x="375" y="608" type="curve" smooth="yes"/>
      <point x="231" y="608"/>
      <point x="120" y="479"/>
      <point x="120" y="337" type="curve" smooth="yes"/>
      <point x="120" y="199"/>
      <point x="234" y="76"/>
      <point x="375" y="76" type="curve" smooth="yes"/>
      <point x="515" y="76"/>
      <point x="630" y="199"/>
      <point x="630" y="337" type="curve" smooth="yes"/>
      <point x="630" y="479"/>
      <point x="518" y="608"/>
    </contour>
    <contour>
      <point x="375" y="695" type="curve" smooth="yes"/>
      <point x="574" y="695"/>
      <point x="720" y="534"/>
      <point x="720" y="337" type="curve" smooth="yes"/>
      <point x="720" y="144"/>
      <point x="572" y="-12"/>
      <point x="375" y="-12" type="curve" smooth="yes"/>
      <point x="177" y="-12"/>
      <point x="30" y="144"/>
      <point x="30" y="337" type="curve" smooth="yes"/>
      <point x="30" y="534"/>
      <point x="175" y="695"/>
    </contour>
    <contour>
      <point x="375.0" y="685.0" type="move" name="top"/>
    </contour>
    <contour>
      <point x="375.0" y="0.0" type="move" name="bottom"/>
    </contour>
  </outline>
</glyph>
<glyph name="Q" format="1">
  <advance width="748"/>
  <unicode hex="0051"/>
  <outline>
    <contour>
      <point x="628" y="-70" type="line"/>
      <point x="409" y="187" type="line"/>
      <point x="477" y="246" type="line"/>
      <point x="697" y="-11" type="line"/>
    </contour>
    <component base="O"/>
  </outline>
</glyph>
<glyph name="S" format="1">
  <advance width="601"/>
  <unicode hex="0053"/>
  <outline>
    <contour>
      <point x="480" y="523" type="line"/>
      <point x="428" y="572"/>
      <point x="395" y="600"/>
      <point x="308" y="600" type="curve"/>
      <point x="232" y="600"/>
      <point x="154" y="564"/>
      <point x="154" y="498" type="curve"/>
      <point x="154" y="351"/>
      <point x="569" y="450"/>
      <point x="569" y="183" type="curve"/>
      <point x="569" y="55"/>
      <point x="463" y="-12"/>
      <point x="308" y="-12" type="curve"/>
      <point x="155" y="-12"/>
      <point x="66" y="59"/>
      <point x="30" y="125" type="curve"/>
      <point x="105" y="176" type="line"/>
      <point x="148" y="117"/>
      <point x="212" y="78"/>
      <point x="311" y="78" type="curve"/>
      <point x="398" y="78"/>
      <point x="483" y="109"/>
      <point x="483" y="175" type="curve"/>
      <point x="483" y="362"/>
      <point x="68" y="241"/>
      <point x="68" y="499" type="curve"/>
      <point x="68" y="604"/>
      <point x="172" y="690"/>
      <point x="308" y="690" type="curve"/>
      <point x="423" y="690"/>
      <point x="491" y="644"/>
      <point x="553" y="577" type="curve"/>
    </contour>
    <contour>
      <point x="308" y="685" type="move" name="top"/>
    </contour>
    <contour>
      <point x="308" y="0" type="move" name="bottom"/>
    </contour>
  </outline>
</glyph>
<glyph name="X" format="1">
  <advance width="548"/>
  <unicode hex="0058"/>
  <outline>
    <contour>
      <point x="547" y="685" type="line"/>
      <point x="93" y="0" type="line"/>
      <point x="-15" y="0" type="line"/>
      <point x="439" y="685" type="line"/>
    </contour>
    <contour>
      <point x="-6" y="685" type="line"/>
      <point x="102" y="685" type="line"/>
      <point x="564" y="0" type="line"/>
      <point x="456" y="0" type="line"/>
    </contour>
  </outline>
</glyph>
<glyph name="Z" format="1">
  <advance width="608"/>
  <unicode hex="005A"/>
  <outline>
    <contour>
      <point x="30" y="0" type="line"/>
      <point x="30" y="85" type="line"/>
      <point x="578" y="85" type="line"/>
      <point x="578" y="0" type="line"/>
    </contour>
    <contour>
      <point x="568" y="600" type="line"/>
      <point x="50" y="600" type="line"/>
      <point x="50" y="685" type="line"/>
      <point x="568" y="685" type="line"/>
    </contour>
    <contour>
      <point x="30" y="85" type="line"/>
      <point x="495" y="656" type="line"/>
      <point x="568" y="600" type="line"/>
      <point x="102" y="35" type="line"/>
    </contour>
    <contour>
      <point x="312.0" y="685.0" type="move" name="top"/>
    </contour>
  </outline>
</glyph>
<glyph name="bracketleft" format="1">
  <advance width="314"/>
  <unicode hex="005B"/>
  <outline>
    <contour>
      <point x="329" y="-100" type="line"/>
      <point x="329" y="-185" type="line"/>
      <point x="55" y="-185" type="line"/>
      <point x="55" y="-100" type="line"/>
    </contour>
    <contour>
      <point x="329" y="770" type="line"/>
      <point x="329" y="685" type="line"/>
      <point x="55" y="685" type="line"/>
      <point x="55" y="770" type="line"/>
    </contour>
    <component base="bar"/>
  </outline>
</glyph>
<glyph name="asciicircum" format="1">
  <advance width="569"/>
  <unicode hex="005E"/>
  <outline>
    <contour>
      <point x="5" y="224" type="line"/>
      <point x="66" y="156" type="line"/>
      <point x="308" y="404" type="line"/>
      <point x="249" y="403" type="line"/>
      <point x="506" y="156" type="line"/>
      <point x="564" y="224" type="line"/>
      <point x="278" y="500" type="line"/>
    </contour>
  </outline>
</glyph>
<glyph name="a" format="1">
  <advance width="516"/>
  <unicode hex="0061"/>
  <outline>
    <contour>
      <point x="29" y="388" type="line"/>
      <point x="87" y="478"/>
      <point x="158" y="510"/>
      <point x="251" y="510" type="curve" smooth="yes"/>
      <point x="361" y="510"/>
      <point x="454" y="460"/>
      <point x="448" y="320" type="curve" smooth="yes"/>
      <point x="441" y="143" type="line" smooth="yes"/>
      <point x="440" y="109"/>
      <point x="447" y="78"/>
      <point x="513" y="89" type="curve"/>
      <point x="501" y="0" type="line"/>
      <point x="395" y="-15"/>
      <point x="350" y="15"/>
      <point x="355" y="147" type="curve" smooth="yes"/>
      <point x="362" y="324" type="line" smooth="yes"/>
      <point x="365" y="396"/>
      <point x="310" y="420"/>
      <point x="251" y="420" type="curve"/>
      <point x="193" y="420"/>
      <point x="144" y="398"/>
      <point x="109" y="347" type="curve"/>
    </contour>
    <contour>
      <point x="405" y="225" type="line"/>
      <point x="316" y="233"/>
      <point x="115" y="233"/>
      <point x="115" y="139" type="curve"/>
      <point x="115" y="101"/>
      <point x="149" y="71"/>
      <point x="205" y="71" type="curve"/>
      <point x="265" y="71"/>
      <point x="358" y="123"/>
      <point x="358" y="228" type="curve"/>
      <point x="410" y="222" type="line"/>
      <point x="398.0" y="79.6085106383"/>
      <point x="324" y="-12"/>
      <point x="197" y="-12" type="curve"/>
      <point x="107" y="-12"/>
      <point x="25" y="28"/>
      <point x="25" y="137" type="curve"/>
      <point x="25" y="289"/>
      <point x="228" y="323"/>
      <point x="413" y="305" type="curve"/>
    </contour>
    <contour>
      <point x="251" y="500" type="move" name="top"/>
    </contour>
    <contour>
      <point x="197" y="0" type="move" name="bottom"/>
    </contour>
    <contour>
      <point x="505" y="0" type="move" name="ogonek"/>
    </contour>
  </outline>
</glyph>
<glyph name="f" format="1">
  <advance width="314"/>
  <unicode hex="0066"/>
  <outline>
    <contour>
      <point x="28" y="415" type="line"/>
      <point x="28" y="500" type="line"/>
      <point x="312" y="500" type="line"/>
      <point x="312" y="415" type="line"/>
    </contour>
    <contour>
      <point x="202" y="0" type="line"/>
      <point x="112" y="0" type="line"/>
      <point x="112" y="565" type="line" smooth="yes"/>
      <point x="112" y="624"/>
      <point x="153" y="686"/>
      <point x="239" y="686" type="curve" smooth="yes"/>
      <point x="267" y="686"/>
      <point x="301" y="680"/>
      <point x="339" y="664" type="curve"/>
      <point x="303" y="586" type="line"/>
      <point x="283" y="594"/>
      <point x="266" y="597"/>
      <point x="252" y="597" type="curve" smooth="yes"/>
      <point x="216" y="597"/>
      <point x="202" y="573"/>
      <point x="202" y="539" type="curve" smooth="yes"/>
    </contour>
  </outline>
</glyph>
<glyph name="g" format="1">
  <advance width="526"/>
  <unicode hex="0067"/>
  <outline>
    <contour>
      <point x="502" y="391" type="line"/>
      <point x="452" y="408"/>
      <point x="405" y="389"/>
      <point x="405" y="301" type="curve"/>
      <point x="355" y="319" type="line"/>
      <point x="381" y="459"/>
      <point x="441" y="518"/>
      <point x="533" y="472" type="curve"/>
    </contour>
    <contour>
      <point x="227" y="186" type="line"/>
      <point x="214" y="170"/>
      <point x="164" y="163"/>
      <point x="164" y="127" type="curve"/>
      <point x="164.0" y="24.0"/>
      <point x="476.0" y="148.0"/>
      <point x="476" y="-81" type="curve"/>
      <point x="476.0" y="-175.0"/>
      <point x="401.603864734" y="-241.0"/>
      <point x="256" y="-241" type="curve"/>
      <point x="87.2037914692" y="-241.0"/>
      <point x="32.0" y="-161.0"/>
      <point x="32" y="-83" type="curve" smooth="yes"/>
      <point x="32.0" y="-15.0"/>
      <point x="89.0272727273" y="48.0"/>
      <point x="155" y="48" type="curve"/>
      <point x="217" y="16" type="line"/>
      <point x="179.338063731" y="3.44602124362"/>
      <point x="121.0" y="-15.0"/>
      <point x="121" y="-73" type="curve"/>
      <point x="121.0" y="-122.0"/>
      <point x="176.078125" y="-157.0"/>
      <point x="262" y="-157" type="curve"/>
      <point x="337.963963964" y="-157.0"/>
      <point x="388.000173101" y="-119.002942719"/>
      <point x="386" y="-85" type="curve"/>
      <point x="386.0" y="40.0"/>
      <point x="73.0" y="-62.0"/>
      <point x="73" y="114" type="curve"/>
      <point x="73" y="164"/>
      <point x="115" y="205"/>
      <point x="184" y="226" type="curve"/>
    </contour>
    <contour>
      <point x="64" y="321" type="line"/>
      <point x="64" y="321"/>
      <point x="64" y="321"/>
      <point x="64" y="321" type="curve" smooth="yes"/>
      <point x="64" y="428"/>
      <point x="152" y="510"/>
      <point x="249" y="510" type="curve" smooth="yes"/>
      <point x="348" y="510"/>
      <point x="434" y="428"/>
      <point x="434" y="321" type="curve" smooth="yes"/>
      <point x="434" y="220"/>
      <point x="348" y="148"/>
      <point x="249" y="148" type="curve" smooth="yes"/>
      <point x="152" y="148"/>
      <point x="64" y="220"/>
      <point x="64" y="321" type="curve"/>
      <point x="151" y="321" type="line"/>
      <point x="151" y="276"/>
      <point x="192" y="231"/>
      <point x="249" y="231" type="curve" smooth="yes"/>
      <point x="307" y="231"/>
      <point x="347" y="276"/>
      <point x="347" y="321" type="curve" smooth="yes"/>
      <point x="347" y="377"/>
      <point x="308" y="427"/>
      <point x="249" y="427" type="curve" smooth="yes"/>
      <point x="193" y="427"/>
      <point x="151" y="377"/>
      <point x="151" y="321" type="curve" smooth="yes"/>
      <point x="151" y="321"/>
      <point x="151" y="321"/>
      <point x="151" y="321" type="curve"/>
    </contour>
    <contour>
      <point x="271" y="500" type="move" name="top"/>
    </contour>
  </outline>
</glyph>
<glyph name="j" format="1">
  <advance width="200"/>
  <unicode hex="006A"/>
  <outline>
    <contour>
      <point x="55" y="0" type="line"/>
      <point x="145" y="0" type="line"/>
      <point x="145" y="-45" type="line" smooth="yes"/>
      <point x="145" y="-104"/>
      <point x="100" y="-179"/>
      <point x="-13" y="-140" type="curve"/>
      <point x="-8" y="-51" type="line"/>
      <point x="36" y="-63"/>
      <point x="55" y="-50"/>
      <point x="55" y="-16" type="curve" smooth="yes"/>
    </contour>
    <component base="dotaccent"/>
    <component base="dotlessi"/>
  </outline>
</glyph>
<glyph name="l" format="1">
  <advance width="202"/>
  <unicode hex="006C"/>
  <outline>
    <contour>
      <point x="56" y="0" type="line"/>
      <point x="56" y="685" type="line"/>
      <point x="146" y="685" type="line"/>
      <point x="146" y="0" type="line"/>
    </contour>
    <contour>
      <point x="101" y="685" type="move" name="top"/>
    </contour>
    <contour>
      <point x="101" y="0" type="move" name="bottom"/>
    </contour>
  </outline>
</glyph>
<glyph name="m" format="1">
  <advance width="830"/>
  <unicode hex="006D"/>
  <outline>
    <contour>
      <point x="685" y="0" type="line"/>
      <point x="685" y="329" type="line" smooth="yes"/>
      <point x="685" y="391"/>
      <point x="638" y="424"/>
      <point x="585" y="424" type="curve" smooth="yes"/>
      <point x="520" y="424"/>
      <point x="460" y="372"/>
      <point x="460" y="284" type="curve"/>
      <point x="418" y="284" type="line"/>
      <point x="418" y="440"/>
      <point x="516" y="510"/>
      <point x="603" y="510" type="curve"/>
      <point x="702" y="510"/>
      <point x="775" y="448"/>
      <point x="775" y="359" type="curve" smooth="yes"/>
      <point x="775" y="0" type="line"/>
    </contour>
    <component base="n"/>
  </outline>
</glyph>
<glyph name="n" format="1">
  <advance width="515"/>
  <unicode hex="006E"/>
  <outline>
    <contour>
      <point x="370" y="0" type="line"/>
      <point x="370" y="329" type="line" smooth="yes"/>
      <point x="370" y="391"/>
      <point x="323" y="424"/>
      <point x="270" y="424" type="curve" smooth="yes"/>
      <point x="205" y="424"/>
      <point x="145" y="372"/>
      <point x="145" y="284" type="curve"/>
      <point x="103" y="284" type="line"/>
      <point x="103" y="440"/>
      <point x="201" y="510"/>
      <point x="288" y="510" type="curve"/>
      <point x="387" y="510"/>
      <point x="460" y="448"/>
      <point x="460" y="359" type="curve" smooth="yes"/>
      <point x="460" y="0" type="line"/>
    </contour>
    <component base="dotlessi"/>
    <contour>
      <point x="259" y="500" type="move" name="top"/>
    </contour>
    <contour>
      <point x="257" y="0" type="move" name="bottom"/>
    </contour>
  </outline>
</glyph>
<glyph name="o" format="1">
  <advance width="518"/>
  <unicode hex="006F"/>
  <outline>
    <contour>
      <point x="259" y="72" type="curve" smooth="yes"/>
      <point x="345.916666667" y="72.0"/>
      <point x="408.0" y="148.0"/>
      <point x="408" y="249" type="curve" smooth="yes"/>
      <point x="408.0" y="352.0"/>
      <point x="345.916666667" y="426.0"/>
      <point x="259" y="426" type="curve" smooth="yes"/>
      <point x="172.083333333" y="426.0"/>
      <point x="110.0" y="352.0"/>
      <point x="110" y="249" type="curve" smooth="yes"/>
      <point x="110.0" y="148.0"/>
      <point x="172.083333333" y="72.0"/>
    </contour>
    <contour>
      <point x="259" y="-12" type="curve" smooth="yes"/>
      <point x="125.200854701" y="-12.0"/>
      <point x="20.0" y="87.0"/>
      <point x="20" y="249" type="curve" smooth="yes"/>
      <point x="20.0" y="410.0"/>
      <point x="129.286324786" y="510.0"/>
      <point x="259" y="510" type="curve" smooth="yes"/>
      <point x="388.713675214" y="510.0"/>
      <point x="498.0" y="410.0"/>
      <point x="498" y="249" type="curve" smooth="yes"/>
      <point x="498.0" y="87.0"/>
      <point x="392.799145299" y="-12.0"/>
    </contour>
    <contour>
      <point x="259" y="500" type="move" name="top"/>
    </contour>
    <contour>
      <point x="259" y="0" type="move" name="bottom"/>
    </contour>
  </outline>
</glyph>
<glyph name="r" format="1">
  <advance width="342"/>
  <unicode hex="0072"/>
  <outline>
    <contour>
      <point x="321" y="401" type="line"/>
      <point x="298" y="414"/>
      <point x="278" y="421"/>
      <point x="254" y="421" type="curve" smooth="yes"/>
      <point x="198" y="421"/>
      <point x="145" y="369"/>
      <point x="145" y="314" type="curve"/>
      <point x="106" y="314" type="line"/>
      <point x="106" y="433"/>
      <point x="184" y="510"/>
      <point x="262" y="510" type="curve" smooth="yes"/>
      <point x="293" y="510"/>
      <point x="326" y="500"/>
      <point x="352" y="481" type="curve"/>
    </contour>
    <component base="dotlessi"/>
    <contour>
      <point x="236" y="500" type="move" name="top"/>
    </contour>
    <contour>
      <point x="237.0" y="0.0" type="move" name="bottom"/>
    </contour>
  </outline>
</glyph>
<glyph name="s" format="1">
  <advance width="466"/>
  <unicode hex="0073"/>
  <outline>
    <contour>
      <point x="361" y="355" type="line"/>
      <point x="334" y="400"/>
      <point x="297" y="420"/>
      <point x="232" y="420" type="curve" smooth="yes"/>
      <point x="178" y="420"/>
      <point x="144" y="402"/>
      <point x="144" y="363" type="curve"/>
      <point x="144" y="340"/>
      <point x="167" y="321"/>
      <point x="200" y="313" type="curve" smooth="yes"/>
      <point x="289" y="292" type="line" smooth="yes"/>
      <point x="359" y="276"/>
      <point x="441" y="238"/>
      <point x="441" y="146" type="curve"/>
      <point x="441" y="53"/>
      <point x="356" y="-12"/>
      <point x="241" y="-12" type="curve" smooth="yes"/>
      <point x="136" y="-12"/>
      <point x="48" y="49"/>
      <point x="25" y="107" type="curve"/>
      <point x="96" y="161" type="line"/>
      <point x="115" y="124"/>
      <point x="163" y="78"/>
      <point x="241" y="78" type="curve"/>
      <point x="298" y="78"/>
      <point x="355" y="90"/>
      <point x="355" y="139" type="curve"/>
      <point x="355" y="178"/>
      <point x="304" y="199"/>
      <point x="267" y="208" type="curve" smooth="yes"/>
      <point x="177" y="230" type="line" smooth="yes"/>
      <point x="116" y="245"/>
      <point x="58" y="276"/>
      <point x="58" y="367" type="curve"/>
      <point x="58" y="448"/>
      <point x="128" y="510"/>
      <point x="232" y="510" type="curve" smooth="yes"/>
      <point x="330" y="510"/>
      <point x="392" y="474"/>
      <point x="428" y="412" type="curve"/>
    </contour>
    <contour>
      <point x="241" y="0" type="move" name="bottom"/>
    </contour>
    <contour>
      <point x="232" y="500" type="move" name="top"/>
    </contour>
  </outline>
</glyph>
<glyph name="t" format="1">
  <advance width="332"/>
  <unicode hex="0074"/>
  <outline>
    <contour>
      <point x="15" y="500" type="line"/>
      <point x="299" y="500" type="line"/>
      <point x="299" y="415" type="line"/>
      <point x="15" y="415" type="line"/>
    </contour>
    <contour>
      <point x="189" y="632" type="line"/>
      <point x="189" y="125" type="line" smooth="yes"/>
      <point x="189" y="94"/>
      <point x="210" y="75"/>
      <point x="250" y="75" type="curve" smooth="yes"/>
      <point x="264" y="75"/>
      <point x="279" y="77"/>
      <point x="297" y="82" type="curve"/>
      <point x="302" y="-4" type="line"/>
      <point x="276" y="-10"/>
      <point x="252" y="-12"/>
      <point x="232" y="-12" type="curve" smooth="yes"/>
      <point x="138" y="-12"/>
      <point x="99" y="41"/>
      <point x="99" y="102" type="curve" smooth="yes"/>
      <point x="99" y="592" type="line"/>
    </contour>
  </outline>
</glyph>
<glyph name="u" format="1">
  <advance width="515"/>
  <unicode hex="0075"/>
  <outline>
    <component base="n" xScale="-1" yScale="-1" xOffset="515" yOffset="500"/>
    <contour>
      <point x="258" y="501" type="move" name="top"/>
    </contour>
    <contour>
      <point x="227" y="0" type="move" name="bottom"/>
    </contour>
    <contour>
      <point x="460" y="0" type="move" name="ogonek"/>
    </contour>
  </outline>
</glyph>
<glyph name="v" format="1">
  <advance width="457"/>
  <unicode hex="0076"/>
  <outline>
    <contour>
      <point x="280" y="0" type="line"/>
      <point x="188" y="0" type="line"/>
      <point x="380" y="500" type="line"/>
      <point x="477" y="500" type="line"/>
    </contour>
    <contour>
      <point x="177" y="0" type="line"/>
      <point x="-20" y="500" type="line"/>
      <point x="77" y="500" type="line"/>
      <point x="269" y="0" type="line"/>
    </contour>
    <contour>
      <point x="228" y="500" type="move" name="top"/>
    </contour>
  </outline>
</glyph>
<glyph name="bar" format="1">
  <advance width="212"/>
  <unicode hex="007C"/>
  <outline>
    <contour>
      <point x="55" y="-185" type="line"/>
      <point x="55" y="685" type="line"/>
      <point x="157" y="685" type="line"/>
      <point x="157" y="-185" type="line"/>
    </contour>
  </outline>
</glyph>
<glyph name="exclamdown" format="1">
  <advance width="212"/>
  <unicode hex="00A1"/>
  <outline>
    <contour>
      <point x="58" y="244" type="line"/>
      <point x="55" y="0" type="line"/>
      <point x="157" y="0" type="line"/>
      <point x="154" y="244" type="line"/>
      <point x="147" y="500" type="line"/>
      <point x="65" y="500" type="line"/>
    </contour>
    <contour>
      <point x="55" y="570" type="line"/>
      <point x="157" y="570" type="line"/>
      <point x="157" y="685" type="line"/>
      <point x="55" y="685" type="line"/>
    </contour>
  </outline>
</glyph>
<glyph name="copyright" format="1">
  <advance width="323"/>
  <unicode hex="00A9"/>
  <outline>
    <contour>
      <point x="159" y="693" type="curve" smooth="yes"/>
      <point x="111" y="693"/>
      <point x="70" y="652"/>
      <point x="70" y="603" type="curve" smooth="yes"/>
      <point x="70" y="554"/>
      <point x="111" y="514"/>
      <point x="159" y="514" type="curve" smooth="yes"/>
      <point x="208" y="514"/>
      <point x="249" y="554"/>
      <point x="249" y="603" type="curve" smooth="yes"/>
      <point x="249" y="652"/>
      <point x="208" y="693"/>
    </contour>
    <contour>
      <point x="159" y="723" type="curve" smooth="yes"/>
      <point x="225" y="723"/>
      <point x="280" y="669"/>
      <point x="280" y="603" type="curve" smooth="yes"/>
      <point x="280" y="537"/>
      <point x="225" y="483"/>
      <point x="159" y="483" type="curve" smooth="yes"/>
      <point x="94" y="483"/>
      <point x="39" y="537"/>
      <point x="39" y="603" type="curve" smooth="yes"/>
      <point x="39" y="669"/>
      <point x="94" y="723"/>
    </contour>
    <contour>
      <point x="188" y="618" type="line"/>
      <point x="183" y="632"/>
      <point x="175" y="640"/>
      <point x="159" y="640" type="curve"/>
      <point x="138" y="640"/>
      <point x="129" y="621"/>
      <point x="129" y="603" type="curve" smooth="yes"/>
      <point x="129" y="584"/>
      <point x="137" y="567"/>
      <point x="160" y="567" type="curve"/>
      <point x="172" y="567"/>
      <point x="183" y="573"/>
      <point x="188" y="585" type="curve"/>
      <point x="207" y="575" type="line"/>
      <point x="201" y="559"/>
      <point x="183" y="547"/>
      <point x="160" y="547" type="curve"/>
      <point x="127" y="547"/>
      <point x="106" y="573"/>
      <point x="106" y="603" type="curve" smooth="yes"/>
      <point x="106" y="640"/>
      <point x="135" y="660"/>
      <point x="160" y="660" type="curve"/>
      <point x="181" y="660"/>
      <point x="201" y="649"/>
      <point x="208" y="627" type="curve"/>
    </contour>
  </outline>
</glyph>
<glyph name="paragraph" format="1">
  <advance width="653"/>
  <unicode hex="00B6"/>
  <outline>
    <contour>
      <point x="273" y="326" type="curve"/>
      <point x="228" y="326" type="line" smooth="yes"/>
      <point x="80" y="326"/>
      <point x="25" y="418"/>
      <point x="25" y="503" type="curve"/>
      <point x="25" y="592"/>
      <point x="83" y="685"/>
      <point x="226" y="685" type="curve" smooth="yes"/>
      <point x="273" y="685" type="line"/>
      <point x="273" y="685"/>
      <point x="273" y="326"/>
    </contour>
    <contour>
      <point x="363" y="0" type="line"/>
      <point x="273" y="0" type="line"/>
      <point x="273" y="685" type="line"/>
      <point x="363" y="685" type="line"/>
    </contour>
    <contour>
      <point x="633" y="605" type="line"/>
      <point x="273" y="605" type="line"/>
      <point x="273" y="685" type="line"/>
      <point x="633" y="685" type="line"/>
    </contour>
    <contour>
      <point x="453" y="0" type="line"/>
      <point x="453" y="685" type="line"/>
      <point x="543" y="685" type="line"/>
      <point x="543" y="0" type="line"/>
    </contour>
  </outline>
</glyph>
<glyph name="Eth" format="1">
  <advance width="631"/>
  <unicode hex="00D0"/>
  <outline>
    <contour>
      <point x="-20" y="300" type="line"/>
      <point x="-20" y="385" type="line"/>
      <point x="284" y="385" type="line"/>
      <point x="284" y="300" type="line"/>
    </contour>
    <component base="D" xOffset="26"/>
  </outline>
</glyph>
<glyph name="oslash" format="1">
  <advance width="558"/>
  <unicode hex="00F8"/>
  <outline>
    <contour>
      <point x="81" y="-96" type="curve"/>
      <point x="386" y="621" type="line"/>
      <point x="386" y="621"/>
      <point x="470" y="588"/>
      <point x="470" y="588" type="curve"/>
      <point x="161" y="-130" type="line"/>
      <point x="161" y="-130"/>
      <point x="81" y="-96"/>
    </contour>
    <component base="o"/>
  </outline>
</glyph>
<glyph name="Dcroat" format="1">
  <advance width="631"/>
  <unicode hex="0110"/>
  <outline>
    <contour>
      <point x="-20" y="366" type="line"/>
      <point x="-20" y="451" type="line"/>
      <point x="284" y="451" type="line"/>
      <point x="284" y="366" type="line"/>
    </contour>
    <component base="D" xOffset="26"/>
  </outline>
</glyph>
<glyph name="dcroat" format="1">
  <advance width="524"/>
  <unicode hex="0111"/>
  <outline>
    <contour>
      <point x="300" y="539" type="line"/>
      <point x="300" y="624" type="line"/>
      <point x="544" y="624" type="line"/>
      <point x="544" y="539" type="line"/>
    </contour>
    <component base="d"/>
  </outline>
</glyph>
<glyph name="IJ" format="1">
  <advance width="523"/>
  <unicode hex="0132"/>
  <outline>
    <contour>
      <point x="331" y="79"/>
      <point x="365" y="124"/>
      <point x="365" y="177" type="curve" smooth="yes"/>
      <point x="365" y="685" type="line"/>
      <point x="455" y="685" type="line"/>
      <point x="455" y="187" type="line" smooth="yes"/>
      <point x="455" y="47"/>
      <point x="385" y="-11"/>
      <point x="274" y="-11" type="curve"/>
      <point x="237" y="-11"/>
      <point x="206" y="-2"/>
      <point x="185" y="11" type="curve"/>
      <point x="226" y="94" type="line"/>
      <point x="238" y="87"/>
      <point x="265" y="79"/>
      <point x="281" y="79" type="curve"/>
    </contour>
    <component base="I"/>
  </outline>
</glyph>
<glyph name="lslash" format="1">
  <advance width="264"/>
  <unicode hex="0142"/>
  <outline>
    <contour>
      <point x="-20" y="341" type="line"/>
      <point x="-20" y="431" type="line"/>
      <point x="284" y="534" type="line"/>
      <point x="284" y="444" type="line"/>
    </contour>
    <component base="l" xOffset="30"/>
  </outline>
</glyph>
<glyph name="OE" format="1">
  <advance width="976"/>
  <unicode hex="0152"/>
  <outline>
    <contour>
      <point x="546" y="533" type="line" smooth="yes"/>
      <point x="501" y="577"/>
      <point x="441" y="605"/>
      <point x="375" y="605" type="curve" smooth="yes"/>
      <point x="231" y="605"/>
      <point x="120" y="476"/>
      <point x="120" y="337" type="curve" smooth="yes"/>
      <point x="120" y="203"/>
      <point x="234" y="80"/>
      <point x="375" y="80" type="curve" smooth="yes"/>
      <point x="441" y="80"/>
      <point x="501" y="107"/>
      <point x="546" y="150" type="curve"/>
    </contour>
    <contour>
      <point x="546" y="32" type="line" smooth="yes"/>
      <point x="496" y="4"/>
      <point x="438" y="-12"/>
      <point x="375" y="-12" type="curve" smooth="yes"/>
      <point x="177" y="-12"/>
      <point x="30" y="144"/>
      <point x="30" y="337" type="curve" smooth="yes"/>
      <point x="30" y="534"/>
      <point x="175" y="695"/>
      <point x="375" y="695" type="curve" smooth="yes"/>
      <point x="438" y="695"/>
      <point x="497" y="679"/>
      <point x="546" y="650" type="curve"/>
    </contour>
    <component base="E" xOffset="403"/>
  </outline>
</glyph>
<glyph name="caron" format="1">
  <advance width="406"/>
  <unicode hex="02C7"/>
  <outline>
    <component base="circumflex" yScale="-1" yOffset="1241"/>
    <contour>
      <point x="203" y="500" type="move" name="_top"/>
    </contour>
  </outline>
</glyph>
<glyph name="breve" format="1">
  <advance width="406"/>
  <unicode hex="02D8"/>
  <outline>
    <contour>
      <point x="203" y="614" type="curve"/>
      <point x="160" y="614"/>
      <point x="139" y="650"/>
      <point x="139" y="685" type="curve"/>
      <point x="50" y="685" type="line"/>
      <point x="50" y="616"/>
      <point x="104" y="542"/>
      <point x="203" y="542" type="curve"/>
      <point x="302" y="542"/>
      <point x="356" y="616"/>
      <point x="356" y="685" type="curve"/>
      <point x="267" y="685" type="line"/>
      <point x="267" y="650"/>
      <point x="246" y="614"/>
    </contour>
    <contour>
      <point x="203" y="500" type="move" name="_top"/>
    </contour>
  </outline>
</glyph>
<glyph name="dotaccent" format="1">
  <advance width="190"/>
  <unicode hex="02D9"/>
  <outline>
    <contour>
      <point x="50" y="595" type="line"/>
      <point x="50" y="685" type="line"/>
      <point x="140" y="685" type="line"/>
      <point x="140" y="595" type="line"/>
    </contour>
    <contour>
      <point x="95" y="500" type="move" name="_top"/>
    </contour>
  </outline>
</glyph>
<glyph name="ring" format="1">
  <advance width="256"/>
  <unicode hex="02DA"/>
  <outline>
    <contour>
      <point x="99" y="607"/>
      <point x="78" y="586"/>
      <point x="78" y="559" type="curve" smooth="yes"/>
      <point x="78" y="532"/>
      <point x="99" y="511"/>
      <point x="128" y="511" type="curve" smooth="yes"/>
      <point x="157" y="511"/>
      <point x="178" y="532"/>
      <point x="178" y="559" type="curve" smooth="yes"/>
      <point x="178" y="586"/>
      <point x="157" y="607"/>
      <point x="128" y="607" type="curve" smooth="yes"/>
    </contour>
    <contour>
      <point x="10" y="626"/>
      <point x="61" y="677"/>
      <point x="128" y="677" type="curve" smooth="yes"/>
      <point x="195" y="677"/>
      <point x="246" y="626"/>
      <point x="246" y="559" type="curve" smooth="yes"/>
      <point x="246" y="492"/>
      <point x="195" y="441"/>
      <point x="128" y="441" type="curve" smooth="yes"/>
      <point x="61" y="441"/>
      <point x="10" y="492"/>
      <point x="10" y="559" type="curve" smooth="yes"/>
    </contour>
    <contour>
      <point x="128" y="500" type="move" name="_top"/>
    </contour>
  </outline>
</glyph>
<glyph name="afii10057" format="1">
  <advance width="440"/>
  <unicode hex="0408"/>
  <outline>
    <component base="J"/>
    <contour>
      <point x="340.0" y="685.0" type="move" name="top"/>
    </contour>
  </outline>
</glyph>
<glyph name="afii10026" format="1">
  <advance width="664"/>
  <unicode hex="0418"/>
  <outline>
    <component base="N" xScale="-1" xOffset="664"/>
    <contour>
      <point x="332.0" y="685.0" type="move" name="top"/>
    </contour>
  </outline>
</glyph>
<glyph name="afii10044" format="1">
  <advance width="686"/>
  <unicode hex="042A"/>
  <outline>
    <contour>
      <point x="245" y="595" type="line"/>
      <point x="-50" y="595" type="line"/>
      <point x="-50" y="685" type="line"/>
      <point x="245" y="685" type="line"/>
    </contour>
    <component base="afii10046" xOffset="116"/>
  </outline>
</glyph>
<glyph name="afii10046" format="1">
  <advance width="570"/>
  <unicode hex="042C"/>
  <outline>
    <contour>
      <point x="384" y="90"/>
      <point x="441" y="132"/>
      <point x="441" y="206" type="curve" smooth="yes"/>
      <point x="441" y="282"/>
      <point x="376" y="327"/>
      <point x="295" y="327" type="curve" smooth="yes"/>
      <point x="55" y="327" type="line"/>
      <point x="55" y="415" type="line"/>
      <point x="308" y="415" type="line" smooth="yes"/>
      <point x="445" y="415"/>
      <point x="531" y="345"/>
      <point x="531" y="206" type="curve" smooth="yes"/>
      <point x="531" y="70"/>
      <point x="453" y="0"/>
      <point x="294" y="0" type="curve" smooth="yes"/>
      <point x="55" y="0" type="line"/>
      <point x="55" y="90" type="line"/>
      <point x="301" y="90" type="line" smooth="yes"/>
    </contour>
    <contour>
      <point x="55" y="0" type="line"/>
      <point x="55" y="685" type="line"/>
      <point x="145" y="685" type="line"/>
      <point x="145" y="0" type="line"/>
    </contour>
  </outline>
</glyph>
<glyph name="afii10067" format="1">
  <advance width="440"/>
  <unicode hex="0432"/>
  <outline>
    <contour>
      <point x="280" y="361" type="curve"/>
      <point x="280" y="397"/>
      <point x="252" y="410"/>
      <point x="197" y="410" type="curve" smooth="yes"/>
      <point x="65" y="410" type="line"/>
      <point x="65" y="500" type="line"/>
      <point x="197" y="500" type="line" smooth="yes"/>
      <point x="327" y="500"/>
      <point x="370" y="446"/>
      <point x="370" y="361" type="curve"/>
      <point x="370" y="276"/>
      <point x="327" y="222"/>
      <point x="197" y="222" type="curve" smooth="yes"/>
      <point x="65" y="222" type="line"/>
      <point x="65" y="312" type="line"/>
      <point x="197" y="312" type="line" smooth="yes"/>
      <point x="252" y="312"/>
      <point x="280" y="325"/>
    </contour>
    <contour>
      <point x="320" y="156" type="curve"/>
      <point x="320" y="207"/>
      <point x="282" y="222"/>
      <point x="247" y="222" type="curve" smooth="yes"/>
      <point x="95" y="222" type="line"/>
      <point x="95" y="312" type="line"/>
      <point x="247" y="312" type="line" smooth="yes"/>
      <point x="350" y="312"/>
      <point x="410" y="251"/>
      <point x="410" y="156" type="curve"/>
      <point x="410" y="61"/>
      <point x="350" y="0"/>
      <point x="247" y="0" type="curve" smooth="yes"/>
      <point x="95" y="0" type="line"/>
      <point x="95" y="90" type="line"/>
      <point x="247" y="90" type="line" smooth="yes"/>
      <point x="282" y="90"/>
      <point x="320" y="106"/>
    </contour>
    <component base="dotlessi"/>
  </outline>
</glyph>
<glyph name="afii10068" format="1">
  <advance width="382"/>
  <unicode hex="0433"/>
  <outline>
    <contour>
      <point x="372" y="410" type="line"/>
      <point x="63" y="410" type="line"/>
      <point x="63" y="500" type="line"/>
      <point x="372" y="500" type="line"/>
    </contour>
    <component base="dotlessi"/>
  </outline>
</glyph>
<glyph name="afii10078" format="1">
  <advance width="656"/>
  <unicode hex="043C"/>
  <outline>
    <contour>
      <point x="375" y="0" type="line"/>
      <point x="286" y="0" type="line"/>
      <point x="443" y="500" type="line"/>
      <point x="542" y="500" type="line"/>
    </contour>
    <contour>
      <point x="276" y="0" type="line"/>
      <point x="113" y="500" type="line"/>
      <point x="212" y="500" type="line"/>
      <point x="365" y="0" type="line"/>
    </contour>
    <contour>
      <point x="511" y="0" type="curve"/>
      <point x="511" y="500" type="line"/>
      <point x="601" y="500" type="line"/>
      <point x="601" y="0" type="line"/>
      <point x="601" y="0"/>
      <point x="511" y="0"/>
    </contour>
    <contour>
      <point x="55" y="0" type="curve"/>
      <point x="55" y="500" type="line"/>
      <point x="145" y="500" type="line"/>
      <point x="145" y="0" type="line"/>
      <point x="145" y="0"/>
      <point x="55" y="0"/>
    </contour>
  </outline>
</glyph>
<glyph name="afii10079" format="1">
  <advance width="552"/>
  <unicode hex="043D"/>
  <outline>
    <contour>
      <point x="482" y="212" type="line"/>
      <point x="65" y="212" type="line"/>
      <point x="65" y="302" type="line"/>
      <point x="482" y="302" type="line"/>
    </contour>
    <contour>
      <point x="407" y="0" type="line"/>
      <point x="407" y="500" type="line"/>
      <point x="497" y="500" type="line"/>
      <point x="497" y="0" type="line"/>
    </contour>
    <contour>
      <point x="55" y="0" type="line"/>
      <point x="55" y="500" type="line"/>
      <point x="145" y="500" type="line"/>
      <point x="145" y="0" type="line"/>
    </contour>
  </outline>
</glyph>
<glyph name="afii10081" format="1">
  <advance width="552"/>
  <unicode hex="043F"/>
  <outline>
    <contour>
      <point x="482" y="410" type="line"/>
      <point x="65" y="410" type="line"/>
      <point x="65" y="500" type="line"/>
      <point x="482" y="500" type="line"/>
    </contour>
    <contour>
      <point x="407" y="0" type="line"/>
      <point x="407" y="500" type="line"/>
      <point x="497" y="500" type="line"/>
      <point x="497" y="0" type="line"/>
    </contour>
    <contour>
      <point x="55" y="0" type="line"/>
      <point x="55" y="500" type="line"/>
      <point x="145" y="500" type="line"/>
      <point x="145" y="0" type="line"/>
    </contour>
  </outline>
</glyph>
<glyph name="afii10084" format="1">
  <advance width="465"/>
  <unicode hex="0442"/>
  <outline>
    <contour>
      <point x="455" y="410" type="line"/>
      <point x="10" y="410" type="line"/>
      <point x="10" y="500" type="line"/>
      <point x="455" y="500" type="line"/>
    </contour>
    <contour>
      <point x="188" y="0" type="line"/>
      <point x="188" y="500" type="line"/>
      <point x="278" y="500" type="line"/>
      <point x="278" y="0" type="line"/>
    </contour>
  </outline>
</glyph>
<glyph name="afii10097" format="1">
  <advance width="437"/>
  <unicode hex="044F"/>
  <outline>
    <contour>
      <point x="382" y="0" type="line"/>
      <point x="292" y="0" type="line"/>
      <point x="292" y="500" type="line"/>
      <point x="382" y="500" type="line"/>
    </contour>
    <contour>
      <point x="118" y="334" type="curve"/>
      <point x="118" y="279"/>
      <point x="149" y="258"/>
      <point x="223" y="258" type="curve" smooth="yes"/>
      <point x="343" y="258" type="line"/>
      <point x="343" y="168" type="line"/>
      <point x="231" y="168" type="line" smooth="yes"/>
      <point x="78" y="168"/>
      <point x="28" y="234"/>
      <point x="28" y="334" type="curve"/>
      <point x="28" y="434"/>
      <point x="78" y="500"/>
      <point x="231" y="500" type="curve" smooth="yes"/>
      <point x="343" y="500" type="line"/>
      <point x="343" y="410" type="line"/>
      <point x="223" y="410" type="line" smooth="yes"/>
      <point x="149" y="410"/>
      <point x="118" y="389"/>
    </contour>
    <contour>
      <point x="223" y="172" type="line"/>
      <point x="124" y="-1" type="line"/>
      <point x="15" y="-1" type="line"/>
      <point x="134" y="199" type="line"/>
    </contour>
  </outline>
</glyph>
<glyph name="uni0902" format="1">
  <advance width="0"/>
  <unicode hex="0902"/>
  <outline>
    <contour>
      <point x="-161" y="895"/>
      <point x="-181" y="875"/>
      <point x="-181" y="850" type="curve" smooth="yes"/>
      <point x="-181" y="825"/>
      <point x="-161" y="805"/>
      <point x="-136" y="805" type="curve" smooth="yes"/>
      <point x="-111" y="805"/>
      <point x="-91" y="825"/>
      <point x="-91" y="850" type="curve" smooth="yes"/>
      <point x="-91" y="875"/>
      <point x="-111" y="895"/>
      <point x="-136" y="895" type="curve" smooth="yes"/>
    </contour>
  </outline>
</glyph>
<glyph name="uni0907" format="1">
  <advance width="675"/>
  <unicode hex="0907"/>
  <outline>
    <contour>
      <point x="522" y="461" type="line"/>
      <point x="432" y="461" type="line"/>
      <point x="432" y="644" type="line"/>
      <point x="522" y="644" type="line"/>
    </contour>
    <contour>
      <point x="640" y="40"/>
      <point x="526" y="4"/>
      <point x="375" y="4" type="curve" smooth="yes"/>
      <point x="181" y="4"/>
      <point x="56" y="33"/>
      <point x="56" y="146" type="curve"/>
      <point x="56" y="211"/>
      <point x="98" y="254"/>
      <point x="176" y="254" type="curve"/>
      <point x="244" y="254"/>
      <point x="293" y="211"/>
      <point x="318" y="137" type="curve" smooth="yes"/>
      <point x="379" y="-36" type="line"/>
      <point x="303" y="-65" type="line"/>
      <point x="236" y="109" type="line" smooth="yes"/>
      <point x="224" y="149"/>
      <point x="201" y="174"/>
      <point x="180" y="174" type="curve"/>
      <point x="155" y="174"/>
      <point x="145" y="159"/>
      <point x="145" y="148" type="curve"/>
      <point x="145" y="113"/>
      <point x="235" y="86"/>
      <point x="384" y="86" type="curve" smooth="yes"/>
      <point x="483" y="86"/>
      <point x="550" y="114"/>
      <point x="550" y="168" type="curve"/>
      <point x="550.0" y="234.0"/>
      <point x="505.789473684" y="261.0"/>
      <point x="445" y="261" type="curve" smooth="yes"/>
      <point x="415.335766423" y="261.0"/>
      <point x="349.518248175" y="256.0"/>
      <point x="318.0" y="256.0" type="curve" smooth="yes"/>
      <point x="189.0" y="256.0"/>
      <point x="116.0" y="304.0"/>
      <point x="116.0" y="408.0" type="curve"/>
      <point x="116.0" y="505.0"/>
      <point x="199.0" y="540.0"/>
      <point x="296.0" y="540.0" type="curve" smooth="yes"/>
      <point x="432.0" y="540.0" type="line"/>
      <point x="432.0" y="461.0" type="line"/>
      <point x="287.0" y="461.0" type="line" smooth="yes"/>
      <point x="231.0" y="461.0"/>
      <point x="206.0" y="439.0"/>
      <point x="206.0" y="411.0" type="curve" smooth="yes"/>
      <point x="206.0" y="371.0"/>
      <point x="228.0" y="340.0"/>
      <point x="320.0" y="340.0" type="curve" smooth="yes"/>
      <point x="355.777777778" y="340.0"/>
      <point x="437.69005848" y="344.0"/>
      <point x="481" y="344" type="curve" smooth="yes"/>
      <point x="575.973154362" y="344.0"/>
      <point x="640.0" y="284.0"/>
      <point x="640" y="173" type="curve"/>
    </contour>
    <component base="component_6" xOffset="283"/>
    <component base="component_6" xOffset="-108"/>
    <component base="component_6" xOffset="62"/>
  </outline>
</glyph>
<glyph name="uni090F" format="1">
  <advance width="614"/>
  <unicode hex="090F"/>
  <outline>
    <contour>
      <point x="536" y="685" type="line"/>
      <point x="536" y="500" type="line"/>
      <point x="536" y="365"/>
      <point x="480" y="272"/>
      <point x="393" y="203" type="curve"/>
      <point x="333" y="262" type="line"/>
      <point x="396" y="316"/>
      <point x="446" y="391"/>
      <point x="446" y="500" type="curve"/>
      <point x="446" y="685" type="line"/>
    </contour>
    <contour>
      <point x="168" y="685" type="line"/>
      <point x="168" y="476" type="line"/>
      <point x="168" y="253"/>
      <point x="270" y="141"/>
      <point x="426" y="62" type="curve"/>
      <point x="392" y="-19" type="line"/>
      <point x="201" y="70"/>
      <point x="78" y="231"/>
      <point x="78" y="476" type="curve"/>
      <point x="78" y="685" type="line"/>
    </contour>
    <component base="component_6" xOffset="57"/>
    <component base="component_6" xOffset="222"/>
    <component base="component_6" xOffset="-108"/>
  </outline>
</glyph>
<glyph name="uni0917" format="1">
  <advance width="587"/>
  <unicode hex="0917"/>
  <outline>
    <contour>
      <point x="128" y="326" type="line"/>
      <point x="128" y="670" type="line"/>
      <point x="222" y="670" type="line"/>
      <point x="222" y="326" type="line"/>
    </contour>
    <contour>
      <point x="143" y="299" type="curve"/>
      <point x="121" y="295" type="line"/>
      <point x="130" y="302" type="line"/>
      <point x="128" y="326" type="line"/>
      <point x="222" y="326" type="line"/>
      <point x="222" y="236"/>
      <point x="181" y="203"/>
      <point x="158" y="203" type="curve"/>
      <point x="75" y="203"/>
      <point x="25" y="273"/>
      <point x="25" y="336" type="curve"/>
      <point x="25" y="393"/>
      <point x="96" y="366"/>
      <point x="143" y="366" type="curve" smooth="yes"/>
      <point x="143" y="366"/>
      <point x="143" y="299"/>
    </contour>
    <component base="uni093E" xOffset="303"/>
    <component base="component_6" xOffset="-108"/>
  </outline>
</glyph>
<glyph name="uni091B" format="1">
  <advance width="684"/>
  <unicode hex="091B"/>
  <outline>
    <contour>
      <point x="302" y="421" type="curve"/>
      <point x="266" y="360" type="line"/>
      <point x="141" y="361"/>
      <point x="50" y="417"/>
      <point x="49" y="512" type="curve"/>
      <point x="49" y="602"/>
      <point x="129" y="659"/>
      <point x="232" y="657" type="curve"/>
      <point x="225" y="605" type="line"/>
      <point x="170" y="605"/>
      <point x="138" y="564"/>
      <point x="138" y="521" type="curve" smooth="yes"/>
      <point x="138" y="454"/>
      <point x="199" y="438"/>
    </contour>
    <contour>
      <point x="280" y="346" type="line"/>
      <point x="183" y="363"/>
      <point x="136" y="294"/>
      <point x="136" y="235" type="curve"/>
      <point x="136" y="171"/>
      <point x="211" y="123"/>
      <point x="337" y="123" type="curve" smooth="yes"/>
      <point x="488.0" y="123.0"/>
      <point x="561" y="178"/>
      <point x="561" y="328" type="curve"/>
      <point x="561" y="389"/>
      <point x="534" y="444"/>
      <point x="491" y="444" type="curve"/>
      <point x="452" y="444"/>
      <point x="434" y="414"/>
      <point x="434" y="379" type="curve"/>
      <point x="434" y="331"/>
      <point x="484" y="293"/>
      <point x="593" y="294" type="curve"/>
      <point x="567" y="222" type="line"/>
      <point x="438" y="214"/>
      <point x="347" y="287"/>
      <point x="346" y="373" type="curve"/>
      <point x="346" y="469"/>
      <point x="416" y="523"/>
      <point x="495" y="523" type="curve"/>
      <point x="581" y="523"/>
      <point x="651" y="437"/>
      <point x="651" y="331" type="curve"/>
      <point x="651" y="134"/>
      <point x="532.0" y="43.0"/>
      <point x="335" y="43" type="curve" smooth="yes"/>
      <point x="169" y="43"/>
      <point x="45" y="101"/>
      <point x="45" y="231" type="curve"/>
      <point x="45" y="337"/>
      <point x="153" y="435"/>
      <point x="302" y="419" type="curve"/>
    </contour>
    <contour>
      <point x="438" y="453" type="line"/>
      <point x="438" y="638" type="line"/>
      <point x="528" y="638" type="line"/>
      <point x="528" y="453" type="line"/>
    </contour>
    <component base="component_6" xOffset="292"/>
    <component base="component_6" xOffset="160"/>
    <component base="component_6" xOffset="-108"/>
  </outline>
</glyph>
<glyph name="uni091D" format="1">
  <advance width="932"/>
  <unicode hex="091D"/>
  <outline>
    <contour>
      <point x="560" y="322" type="line"/>
      <point x="638" y="310"/>
      <point x="687" y="320"/>
      <point x="753" y="349" type="curve"/>
      <point x="783" y="268" type="line"/>
      <point x="696" y="230"/>
      <point x="633" y="225"/>
      <point x="559" y="237" type="curve"/>
    </contour>
    <component base="uni0907"/>
    <component base="uni093E" xOffset="648"/>
  </outline>
</glyph>
<glyph name="uni091F" format="1">
  <advance width="651"/>
  <unicode hex="091F"/>
  <outline>
    <contour>
      <point x="468" y="421" type="line"/>
      <point x="378" y="421" type="line"/>
      <point x="378" y="664" type="line"/>
      <point x="468" y="664" type="line"/>
    </contour>
    <contour>
      <point x="378" y="421" type="line"/>
      <point x="252" y="421"/>
      <point x="142" y="350"/>
      <point x="142" y="245" type="curve"/>
      <point x="142" y="149"/>
      <point x="210" y="80"/>
      <point x="321" y="80" type="curve" smooth="yes"/>
      <point x="438" y="80"/>
      <point x="495" y="145"/>
      <point x="522" y="227" type="curve"/>
      <point x="602" y="195" type="line"/>
      <point x="579" y="101"/>
      <point x="501" y="-6"/>
      <point x="322" y="-6" type="curve" smooth="yes"/>
      <point x="166" y="-6"/>
      <point x="51" y="74"/>
      <point x="51" y="253" type="curve"/>
      <point x="51" y="419"/>
      <point x="205" y="500"/>
      <point x="378" y="500" type="curve"/>
    </contour>
    <component base="component_6" xOffset="179"/>
    <component base="component_6" xOffset="-108"/>
    <component base="component_6" xOffset="259"/>
  </outline>
</glyph>
<glyph name="uni0922" format="1">
  <advance width="624"/>
  <unicode hex="0922"/>
  <outline>
    <contour>
      <point x="407" y="421" type="line"/>
      <point x="317" y="421" type="line"/>
      <point x="317" y="664" type="line"/>
      <point x="407" y="664" type="line"/>
    </contour>
    <contour>
      <point x="317" y="421" type="line"/>
      <point x="191" y="421"/>
      <point x="81" y="350"/>
      <point x="81" y="245" type="curve"/>
      <point x="81" y="149"/>
      <point x="176" y="80"/>
      <point x="287" y="80" type="curve" smooth="yes"/>
      <point x="420" y="80"/>
      <point x="500" y="112"/>
      <point x="500" y="185" type="curve"/>
      <point x="500" y="227"/>
      <point x="479" y="257"/>
      <point x="429" y="257" type="curve"/>
      <point x="377" y="257"/>
      <point x="355" y="219"/>
      <point x="355" y="188" type="curve"/>
      <point x="355" y="117"/>
      <point x="407" y="105"/>
      <point x="476" y="90" type="curve"/>
      <point x="435" y="54" type="line"/>
      <point x="309" y="47"/>
      <point x="266" y="119"/>
      <point x="266" y="190" type="curve"/>
      <point x="266" y="260"/>
      <point x="331" y="342"/>
      <point x="425" y="342" type="curve"/>
      <point x="528" y="342"/>
      <point x="588" y="275"/>
      <point x="588" y="183" type="curve"/>
      <point x="588" y="64"/>
      <point x="455" y="-6"/>
      <point x="288" y="-6" type="curve" smooth="yes"/>
      <point x="132" y="-6"/>
      <point x="-10" y="74"/>
      <point x="-10" y="253" type="curve"/>
      <point x="-10" y="419"/>
      <point x="144" y="500"/>
      <point x="317" y="500" type="curve"/>
    </contour>
    <component base="component_6" xOffset="232"/>
    <component base="component_6" xOffset="-103"/>
    <component base="component_6" xOffset="148"/>
  </outline>
</glyph>
<glyph name="uni0924" format="1">
  <advance width="568"/>
  <unicode hex="0924"/>
  <outline>
    <contour>
      <point x="398" y="273" type="line"/>
      <point x="364" y="359"/>
      <point x="294" y="395"/>
      <point x="222" y="395" type="curve" smooth="yes"/>
      <point x="155" y="395"/>
      <point x="119" y="359"/>
      <point x="119" y="289" type="curve" smooth="yes"/>
      <point x="119" y="224"/>
      <point x="172" y="134"/>
      <point x="218" y="91" type="curve"/>
      <point x="141" y="40" type="line"/>
      <point x="69" y="115"/>
      <point x="32" y="217"/>
      <point x="31" y="282" type="curve" smooth="yes"/>
      <point x="29" y="407"/>
      <point x="117" y="483"/>
      <point x="225" y="483" type="curve"/>
      <point x="343" y="483"/>
      <point x="400" y="425"/>
      <point x="447" y="298" type="curve"/>
    </contour>
    <component base="uni093E" xOffset="284"/>
    <component base="component_6" xOffset="-108"/>
  </outline>
</glyph>
<glyph name="uni0927" format="1">
  <advance width="592"/>
  <unicode hex="0927"/>
  <outline>
    <contour>
      <point x="328" y="425" type="curve"/>
      <point x="292" y="356" type="line"/>
      <point x="143" y="357"/>
      <point x="35" y="414"/>
      <point x="34" y="510" type="curve"/>
      <point x="34" y="585"/>
      <point x="94" y="638"/>
      <point x="180" y="653" type="curve"/>
      <point x="198" y="605" type="line"/>
      <point x="152" y="594"/>
      <point x="129" y="556"/>
      <point x="129" y="519" type="curve" smooth="yes"/>
      <point x="129" y="456"/>
      <point x="202" y="441"/>
    </contour>
    <contour>
      <point x="318" y="343" type="line"/>
      <point x="220" y="358"/>
      <point x="173" y="295"/>
      <point x="173" y="240" type="curve"/>
      <point x="173" y="188"/>
      <point x="217" y="152"/>
      <point x="290" y="152" type="curve" smooth="yes"/>
      <point x="352" y="152"/>
      <point x="398" y="174"/>
      <point x="432" y="209" type="curve"/>
      <point x="481" y="151" type="line"/>
      <point x="435" y="103"/>
      <point x="371" y="70"/>
      <point x="288" y="70" type="curve" smooth="yes"/>
      <point x="170" y="70"/>
      <point x="82" y="121"/>
      <point x="82" y="235" type="curve"/>
      <point x="82" y="341"/>
      <point x="185" y="440"/>
      <point x="328" y="423" type="curve"/>
    </contour>
    <contour>
      <point x="-10" y="685" type="line"/>
      <point x="198" y="685" type="line"/>
      <point x="198" y="685"/>
      <point x="198" y="605"/>
      <point x="198" y="605" type="curve"/>
      <point x="-10" y="605" type="line"/>
    </contour>
    <component base="uni093E" xOffset="308"/>
  </outline>
</glyph>
<glyph name="uni092D" format="1">
  <advance width="642"/>
  <unicode hex="092D"/>
  <outline>
    <contour>
      <point x="196" y="312" type="line"/>
      <point x="196" y="617" type="line" smooth="yes"/>
      <point x="196" y="637"/>
      <point x="182" y="651"/>
      <point x="161" y="651" type="curve" smooth="yes"/>
      <point x="140" y="651"/>
      <point x="122" y="636"/>
      <point x="122" y="617" type="curve" smooth="yes"/>
      <point x="122" y="598"/>
      <point x="139" y="584"/>
      <point x="161" y="584" type="curve" smooth="yes"/>
      <point x="183" y="584"/>
      <point x="196" y="596"/>
      <point x="196" y="617" type="curve"/>
      <point x="278" y="617" type="line"/>
      <point x="278" y="546"/>
      <point x="237" y="502"/>
      <point x="161" y="502" type="curve" smooth="yes"/>
      <point x="85" y="502"/>
      <point x="40" y="558"/>
      <point x="40" y="617" type="curve" smooth="yes"/>
      <point x="40" y="676"/>
      <point x="88" y="733"/>
      <point x="161" y="733" type="curve" smooth="yes"/>
      <point x="234" y="733"/>
      <point x="286" y="685"/>
      <point x="286" y="617" type="curve" smooth="yes"/>
      <point x="286" y="312" type="line"/>
    </contour>
    <component base="component_10" xOffset="93"/>
    <component base="uni093E" xOffset="358"/>
  </outline>
</glyph>
<glyph name="uni092F" format="1">
  <advance width="706"/>
  <unicode hex="092F"/>
  <outline>
    <contour>
      <point x="308" y="610"/>
      <point x="351" y="503"/>
      <point x="351" y="429" type="curve"/>
      <point x="351" y="346"/>
      <point x="310" y="264"/>
      <point x="214" y="264" type="curve" smooth="yes"/>
      <point x="177" y="264"/>
      <point x="129" y="280"/>
      <point x="67" y="321" type="curve"/>
      <point x="126" y="346" type="line"/>
      <point x="145.193548387" y="274.634146341"/>
      <point x="235.0" y="189.182926829"/>
      <point x="364" y="192" type="curve"/>
      <point x="455" y="188"/>
      <point x="505" y="241"/>
      <point x="559" y="300" type="curve"/>
      <point x="605" y="250" type="line"/>
      <point x="531" y="155"/>
      <point x="464" y="110"/>
      <point x="352" y="110" type="curve"/>
      <point x="173.0" y="110.0"/>
      <point x="75.1082802548" y="227.508928571"/>
      <point x="48" y="324" type="curve"/>
      <point x="48" y="325" type="line"/>
      <point x="112" y="367" type="line" smooth="yes"/>
      <point x="112" y="366" type="line"/>
      <point x="142" y="348"/>
      <point x="164" y="341"/>
      <point x="180" y="341" type="curve" smooth="yes"/>
      <point x="249" y="341"/>
      <point x="261" y="399"/>
      <point x="261" y="446" type="curve"/>
      <point x="261" y="501"/>
      <point x="217" y="567"/>
      <point x="160" y="618" type="curve"/>
      <point x="202" y="652" type="line"/>
    </contour>
    <component base="component_6" xOffset="27"/>
    <component base="component_6" xOffset="-108"/>
    <component base="uni093E" xOffset="422"/>
  </outline>
</glyph>
<glyph name="uni0946" format="1">
  <advance width="0"/>
  <unicode hex="0946"/>
  <outline>
    <contour>
      <point x="-180" y="685" type="line"/>
      <point x="-180" y="754"/>
      <point x="-243" y="782"/>
      <point x="-323" y="782" type="curve" smooth="yes"/>
      <point x="-474" y="782"/>
      <point x="-555" y="828"/>
      <point x="-555" y="950" type="curve"/>
      <point x="-465" y="950" type="line"/>
      <point x="-465" y="885"/>
      <point x="-405" y="862"/>
      <point x="-323" y="862" type="curve" smooth="yes"/>
      <point x="-179" y="862"/>
      <point x="-90" y="814"/>
      <point x="-90" y="685" type="curve"/>
    </contour>
  </outline>
</glyph>
<glyph name="uni094B" format="1">
  <advance width="284"/>
  <unicode hex="094B"/>
  <outline>
    <contour>
      <point x="97" y="685" type="line"/>
      <point x="54" y="787"/>
      <point x="14" y="875"/>
      <point x="-118" y="875" type="curve" smooth="yes"/>
      <point x="-165" y="875"/>
      <point x="-213" y="866"/>
      <point x="-255" y="843" type="curve"/>
      <point x="-292" y="912" type="line"/>
      <point x="-236" y="940"/>
      <point x="-181" y="955"/>
      <point x="-118" y="955" type="curve" smooth="yes"/>
      <point x="47" y="955"/>
      <point x="127" y="859"/>
      <point x="179" y="685" type="curve"/>
    </contour>
    <component base="uni093E"/>
  </outline>
</glyph>
<glyph name="uni0956" format="1">
  <advance width="0"/>
  <unicode hex="0956"/>
  <outline>
    <contour>
      <point x="-78" y="-203"/>
      <point x="-166.822222222" y="-228.0"/>
      <point x="-255" y="-228" type="curve" smooth="yes"/>
      <point x="-325.955102041" y="-228.0"/>
      <point x="-406" y="-203"/>
      <point x="-467" y="-150" type="curve"/>
      <point x="-418" y="-91" type="line"/>
      <point x="-372" y="-130"/>
      <point x="-308.1" y="-147.0"/>
      <point x="-261" y="-147" type="curve" smooth="yes"/>
      <point x="-182.506666667" y="-147.0"/>
      <point x="-115" y="-122"/>
      <point x="-58" y="-78" type="curve"/>
      <point x="-7" y="-135" type="line"/>
    </contour>
  </outline>
</glyph>
<glyph name="uni0966" format="1">
  <advance width="526"/>
  <unicode hex="0966"/>
  <outline>
    <contour>
      <point x="120" y="343" type="curve" smooth="yes"/>
      <point x="120.0" y="194.905937097"/>
      <point x="170" y="80"/>
      <point x="263" y="80" type="curve" smooth="yes"/>
      <point x="356" y="80"/>
      <point x="406.0" y="196.143027824"/>
      <point x="406" y="343" type="curve" smooth="yes"/>
      <point x="406.0" y="488.869842063"/>
      <point x="351" y="605"/>
      <point x="263" y="605" type="curve" smooth="yes"/>
      <point x="175" y="605"/>
      <point x="120.0" y="490.129714647"/>
    </contour>
    <contour>
      <point x="30" y="343" type="line"/>
      <point x="30.0" y="530.350214399"/>
      <point x="117" y="685"/>
      <point x="263" y="685" type="curve" smooth="yes"/>
      <point x="409" y="685"/>
      <point x="496.0" y="530.350214399"/>
      <point x="496" y="343" type="curve" smooth="yes"/>
      <point x="496.0" y="153.656698214"/>
      <point x="415" y="0"/>
      <point x="263" y="0" type="curve" smooth="yes"/>
      <point x="111" y="0"/>
      <point x="30.0" y="153.656698214"/>
      <point x="30" y="343" type="curve"/>
    </contour>
  </outline>
</glyph>
<glyph name="uni0967" format="1">
  <advance width="391"/>
  <unicode hex="0967"/>
  <outline>
    <contour>
      <point x="191.0" y="8.0" type="line"/>
      <point x="239.0" y="5.0"/>
      <point x="265" y="43"/>
      <point x="265.0" y="90.0" type="curve" smooth="yes"/>
      <point x="265" y="161"/>
      <point x="183" y="206"/>
      <point x="119" y="265" type="curve"/>
      <point x="227.808668653" y="411.891702682"/>
      <point x="259" y="468"/>
      <point x="259" y="551" type="curve" smooth="yes"/>
      <point x="259" y="586"/>
      <point x="239" y="614"/>
      <point x="201" y="614" type="curve" smooth="yes"/>
      <point x="162" y="614"/>
      <point x="137.0" y="580.0"/>
      <point x="137.0" y="557.0" type="curve" smooth="yes"/>
      <point x="137.0" y="522.0"/>
      <point x="160.0" y="491.0"/>
      <point x="197.0" y="491.0" type="curve" smooth="yes"/>
      <point x="237.0" y="491.0"/>
      <point x="259" y="521"/>
      <point x="259" y="551" type="curve"/>
      <point x="349" y="551" type="line"/>
      <point x="349" y="483"/>
      <point x="287.0" y="411.0"/>
      <point x="197.0" y="411.0" type="curve" smooth="yes"/>
      <point x="116.0" y="411.0"/>
      <point x="47.0" y="476.0"/>
      <point x="47.0" y="557.0" type="curve"/>
      <point x="47.0" y="629.0"/>
      <point x="101" y="694"/>
      <point x="201" y="694" type="curve" smooth="yes"/>
      <point x="285" y="694"/>
      <point x="349" y="631"/>
      <point x="349" y="551" type="curve" smooth="yes"/>
      <point x="349" y="462"/>
      <point x="310" y="401"/>
      <point x="224" y="281" type="curve"/>
      <point x="274" y="232"/>
      <point x="357" y="179"/>
      <point x="357.0" y="90.0" type="curve" smooth="yes"/>
      <point x="357" y="-7"/>
      <point x="296.0" y="-82.0"/>
      <point x="191.0" y="-72.0" type="curve"/>
    </contour>
  </outline>
</glyph>
<glyph name="uni097A" format="1">
  <advance width="706"/>
  <unicode hex="097A"/>
  <outline>
    <contour>
      <point x="305" y="569" type="line"/>
      <point x="585" y="260" type="line"/>
      <point x="546" y="210" type="line"/>
      <point x="267" y="522" type="line"/>
    </contour>
    <component base="uni092F"/>
  </outline>
</glyph>
<glyph name="quotesinglbase" format="1">
  <advance width="202"/>
  <unicode hex="201A"/>
  <outline>
    <contour>
      <point x="108" y="0" type="line"/>
      <point x="114" y="-50"/>
      <point x="95" y="-80"/>
      <point x="59" y="-101" type="curve"/>
      <point x="81" y="-132" type="line"/>
      <point x="126" y="-104"/>
      <point x="155" y="-68"/>
      <point x="157" y="0" type="curve"/>
      <point x="157" y="115" type="line"/>
      <point x="55" y="115" type="line"/>
      <point x="55" y="0" type="line"/>
    </contour>
  </outline>
</glyph>
<glyph name="trademark" format="1">
  <advance width="263"/>
  <unicode hex="2122"/>
  <outline>
    <contour>
      <point x="196" y="571" type="line"/>
      <point x="175" y="571" type="line"/>
      <point x="212" y="685" type="line"/>
      <point x="233" y="685" type="line"/>
    </contour>
    <contour>
      <point x="170" y="571" type="line"/>
      <point x="133" y="685" type="line"/>
      <point x="154" y="685" type="line"/>
      <point x="191" y="571" type="line"/>
    </contour>
    <contour>
      <point x="223" y="571" type="line"/>
      <point x="223" y="685" type="line"/>
      <point x="243" y="685" type="line"/>
      <point x="243" y="571" type="line"/>
    </contour>
    <contour>
      <point x="123" y="571" type="line"/>
      <point x="123" y="685" type="line"/>
      <point x="143" y="685" type="line"/>
      <point x="143" y="571" type="line"/>
    </contour>
    <contour>
      <point x="111" y="667" type="line"/>
      <point x="20" y="667" type="line"/>
      <point x="20" y="685" type="line"/>
      <point x="111" y="685" type="line"/>
    </contour>
    <contour>
      <point x="55" y="571" type="line"/>
      <point x="55" y="685" type="line"/>
      <point x="76" y="685" type="line"/>
      <point x="76" y="571" type="line"/>
    </contour>
  </outline>
</glyph>
<glyph name="minus" format="1">
  <advance width="565"/>
  <unicode hex="2212"/>
  <outline>
    <contour>
      <point x="88" y="314" type="line"/>
      <point x="477" y="314" type="line"/>
      <point x="477" y="234" type="line"/>
      <point x="88" y="234" type="line"/>
    </contour>
  </outline>
</glyph>
<glyph name="notequal" format="1">
  <advance width="454"/>
  <unicode hex="2260"/>
  <outline>
    <contour>
      <point x="85" y="30" type="line"/>
      <point x="299" y="529" type="line"/>
      <point x="391" y="529" type="line"/>
      <point x="177" y="30" type="line"/>
    </contour>
    <component base="equal"/>
  </outline>
</glyph>
<glyph name="one.onum" format="1">
  <advance width="371"/>
  <unicode hex="E001"/>
  <outline>
    <contour>
      <point x="161" y="0" type="line"/>
      <point x="161" y="406" type="line"/>
      <point x="189" y="337" type="line"/>
      <point x="50" y="337" type="line"/>
      <point x="50" y="391" type="line"/>
      <point x="110" y="404"/>
      <point x="171" y="439"/>
      <point x="195" y="500" type="curve"/>
      <point x="251" y="500" type="line"/>
      <point x="251" y="0" type="line"/>
    </contour>
  </outline>
</glyph>
<glyph name="one.pnum" format="1">
  <advance width="638"/>
  <unicode hex="E011"/>
  <outline>
    <contour>
      <point x="529" y="0" type="line"/>
      <point x="111" y="0" type="line"/>
      <point x="111" y="85" type="line"/>
      <point x="529" y="85" type="line"/>
    </contour>
    <contour>
      <point x="277" y="0" type="line"/>
      <point x="277" y="591" type="line"/>
      <point x="305" y="522" type="line"/>
      <point x="146" y="522" type="line"/>
      <point x="146" y="576" type="line"/>
      <point x="206" y="589"/>
      <point x="287" y="624"/>
      <point x="311" y="685" type="curve"/>
      <point x="367" y="685" type="line"/>
      <point x="367" y="0" type="line"/>
    </contour>
  </outline>
</glyph>
<glyph name="f_f" format="1">
  <advance width="640"/>
  <unicode hex="FB00"/>
  <outline>
    <contour>
      <point x="153" y="415" type="line"/>
      <point x="153" y="500" type="line"/>
      <point x="437" y="500" type="line"/>
      <point x="437" y="415" type="line"/>
    </contour>
    <component base="f" xOffset="315"/>
    <component base="f"/>
  </outline>
</glyph>
<glyph name="fi" format="1">
  <advance width="516"/>
  <unicode hex="FB01"/>
  <outline>
    <contour>
      <point x="306" y="415" type="line"/>
      <point x="306" y="500" type="line"/>
      <point x="390" y="500" type="line"/>
      <point x="390" y="415" type="line"/>
    </contour>
    <component base="dotlessi" xOffset="325"/>
    <component base="f"/>
  </outline>
</glyph>
<glyph name="f_f_i" format="1">
  <advance width="780.0"/>
  <unicode hex="FB03"/>
  <outline>
    <contour>
      <point x="579" y="415" type="line"/>
      <point x="579" y="500" type="line"/>
      <point x="663" y="500" type="line"/>
      <point x="663" y="415" type="line"/>
    </contour>
    <component base="dotlessi" xOffset="598"/>
    <component base="f_f"/>
  </outline>
</glyph>
<glyph name="a.ss02" format="1">
  <advance width="516"/>
  <outline>
    <contour>
      <point x="55.0" y="458.0"/>
      <point x="160.263157895" y="510.0"/>
      <point x="255" y="510" type="curve" smooth="yes"/>
      <point x="362.593301435" y="510.0"/>
      <point x="454" y="460.0"/>
      <point x="454" y="320" type="curve" smooth="yes"/>
      <point x="454" y="0" type="line" smooth="yes"/>
      <point x="365" y="0" type="line"/>
      <point x="365" y="324" type="line" smooth="yes"/>
      <point x="365" y="396.0"/>
      <point x="311.833333333" y="420.0"/>
      <point x="255" y="420" type="curve"/>
      <point x="207.943396226" y="420.0"/>
      <point x="139.0" y="396.0"/>
      <point x="139" y="329" type="curve"/>
      <point x="55" y="329" type="line"/>
    </contour>
    <contour>
      <point x="405" y="225" type="line"/>
      <point x="275" y="227"/>
      <point x="135" y="232"/>
      <point x="135" y="149" type="curve"/>
      <point x="135" y="105"/>
      <point x="165" y="71"/>
      <point x="215" y="71" type="curve"/>
      <point x="274" y="71"/>
      <point x="365" y="123"/>
      <point x="365" y="228" type="curve"/>
      <point x="417" y="222" type="line"/>
      <point x="405" y="80"/>
      <point x="332" y="-12"/>
      <point x="207" y="-12" type="curve"/>
      <point x="122" y="-12"/>
      <point x="45" y="31"/>
      <point x="45" y="147" type="curve"/>
      <point x="45" y="290"/>
      <point x="190" y="317"/>
      <point x="413" y="305" type="curve"/>
    </contour>
  </outline>
</glyph>
<glyph name="commaaccent" format="1">
  <advance width="202"/>
  <outline>
    <component base="comma" xOffset="35" yOffset="-199"/>
    <contour>
      <point x="108" y="0" type="move" name="_bottom"/>
    </contour>
  </outline>
</glyph>
<glyph name="component_7" format="1">
  <advance width="863"/>
  <outline>
    <contour>
      <point x="585" y="261" type="line"/>
      <point x="679.0" y="236.647058824"/>
      <point x="725" y="296"/>
      <point x="725" y="353" type="curve"/>
      <point x="725" y="409"/>
      <point x="683.0" y="451.0"/>
      <point x="619" y="451" type="curve"/>
      <point x="565.0" y="451.0"/>
      <point x="506.0" y="414.504587156"/>
      <point x="506" y="349" type="curve"/>
      <point x="425" y="356" type="line"/>
      <point x="425" y="473"/>
      <point x="527.29" y="530.0"/>
      <point x="618" y="530" type="curve"/>
      <point x="724.0" y="530.0"/>
      <point x="815" y="472"/>
      <point x="815" y="353" type="curve"/>
      <point x="815" y="223"/>
      <point x="705.0" y="138.336956522"/>
      <point x="554" y="179" type="curve"/>
    </contour>
  </outline>
</glyph>
<glyph name="g.ss01" format="1">
  <advance width="539"/>
  <outline>
    <contour>
      <point x="394.0" y="37.0" type="line"/>
      <point x="484.0" y="37.0" type="line"/>
      <point x="484" y="-33" type="line" smooth="yes"/>
      <point x="484" y="-156.232142857"/>
      <point x="399" y="-239"/>
      <point x="248" y="-239" type="curve" smooth="yes"/>
      <point x="177" y="-239"/>
      <point x="93" y="-208"/>
      <point x="42" y="-158" type="curve"/>
      <point x="97" y="-92" type="line"/>
      <point x="145" y="-128"/>
      <point x="197" y="-148"/>
      <point x="246" y="-148" type="curve" smooth="yes"/>
      <point x="335" y="-148"/>
      <point x="394" y="-96.96"/>
      <point x="394" y="-16" type="curve" smooth="yes"/>
    </contour>
    <component base="a.ss01"/>
  </outline>
</glyph>
<glyph name="uni0908" format="1">
  <advance width="675"/>
  <outline>
    <contour>
      <point x="465.0" y="614.0" type="line"/>
      <point x="465.0" y="614.0"/>
      <point x="353.0" y="701.0"/>
      <point x="353.0" y="825.0" type="curve" smooth="yes"/>
      <point x="353.0" y="933.372262774"/>
      <point x="422.0" y="972.0"/>
      <point x="490" y="972" type="curve" smooth="yes"/>
      <point x="532" y="972"/>
      <point x="570" y="959"/>
      <point x="603" y="912" type="curve"/>
      <point x="543" y="860" type="line"/>
      <point x="526" y="880"/>
      <point x="509" y="888"/>
      <point x="493" y="888" type="curve" smooth="yes"/>
      <point x="466.0" y="888.0"/>
      <point x="443.0" y="855.905660377"/>
      <point x="443.0" y="825.0" type="curve" smooth="yes"/>
      <point x="443.0" y="734.0"/>
      <point x="523.0" y="668.0"/>
      <point x="523.0" y="668.0" type="curve"/>
    </contour>
    <component base="uni0907"/>
  </outline>
</glyph>
<glyph name="uni091E" format="1">
  <advance width="677"/>
  <outline>
    <contour>
      <point x="344" y="381" type="line"/>
      <point x="422" y="369"/>
      <point x="471" y="379"/>
      <point x="537" y="408" type="curve"/>
      <point x="567" y="327" type="line"/>
      <point x="480" y="289"/>
      <point x="417" y="284"/>
      <point x="343" y="296" type="curve"/>
    </contour>
    <contour>
      <point x="411" y="335" type="curve"/>
      <point x="411.0" y="255.607142857"/>
      <point x="328.0" y="164.0"/>
      <point x="220" y="164" type="curve" smooth="yes"/>
      <point x="132.0" y="164.0"/>
      <point x="56.5733615591" y="213.463391022"/>
      <point x="31" y="282" type="curve"/>
      <point x="80" y="327" type="line"/>
      <point x="109.809205302" y="276.632722076"/>
      <point x="151.0" y="244.0"/>
      <point x="212" y="244" type="curve"/>
      <point x="286.0" y="244.0"/>
      <point x="326.0" y="295.704545455"/>
      <point x="326" y="335" type="curve" smooth="yes"/>
      <point x="326.0" y="390.14893617"/>
      <point x="276.99009901" y="431.0"/>
      <point x="227" y="431" type="curve" smooth="yes"/>
      <point x="198.317073171" y="431.0"/>
      <point x="164.209104244" y="415.209104244"/>
      <point x="143" y="394" type="curve"/>
      <point x="93" y="451" type="line"/>
      <point x="123.076142278" y="484.187467341"/>
      <point x="172.2" y="510.0"/>
      <point x="225" y="510" type="curve"/>
      <point x="322.946808511" y="510.0"/>
      <point x="411.0" y="438.179190751"/>
    </contour>
    <component base="component_6" xOffset="82"/>
    <component base="uni093E" xOffset="393"/>
    <component base="component_6" xOffset="-108"/>
  </outline>
</glyph>
<glyph name="uni097C" format="1">
  <advance width="765"/>
  <outline>
    <contour>
      <point x="282" y="451" type="curve"/>
      <point x="282" y="503" type="line"/>
      <point x="425" y="503"/>
      <point x="508" y="443"/>
      <point x="508" y="343" type="curve"/>
      <point x="508" y="207"/>
      <point x="408" y="146"/>
      <point x="272" y="146" type="curve" smooth="yes"/>
      <point x="91" y="146"/>
      <point x="13" y="269"/>
      <point x="-10" y="377" type="curve"/>
      <point x="69" y="412" type="line"/>
      <point x="97" y="310"/>
      <point x="157" y="228"/>
      <point x="280" y="228" type="curve" smooth="yes"/>
      <point x="365" y="228"/>
      <point x="417" y="269"/>
      <point x="417" y="327" type="curve"/>
      <point x="417" y="392"/>
      <point x="392" y="451"/>
    </contour>
    <component base="component_6" xOffset="218" yOffset="-605"/>
    <component base="uni093E" xOffset="481"/>
    <component base="component_6" xOffset="-103"/>
    <component base="component_6" xOffset="107"/>
    <component base="component_6" xOffset="184" yOffset="-154"/>
    <component base="component_6" xOffset="-42" yOffset="-605"/>
  </outline>
</glyph>
